<svg xmlns="http://www.w3.org/2000/svg" viewBox="0 0 8196 76.64"><defs><style>.cls-1{fill:#45b554;}</style></defs><title>landscape</title><g id="Layer_2" data-name="Layer 2"><g id="Layer_1-2" data-name="Layer 1"><path class="cls-1" d="M8141,5.64c-3.83-.67-36.15-1.35-42-1l-344,20-294-9-176.73-3.43c-19.27.43-42-8.8-46.27-9.57-45-8-72.85,3.61-111.75,15.36-35.25,10.64-116-6.91-147.7-6.91S6830,15.64,6830,15.64l-55-10c-3.83-.67-36.15-1.35-42-1l-344,20-294-9-176.73-3.43c-19.27.43-42-8.8-46.27-9.57-45-8-72.85,3.61-111.75,15.36-35.25,10.64-116-6.91-147.7-6.91L5464,16.64l-55-10c-3.83-.67-36.15-1.35-42-1l-344,20-294-9-176.73-3.43c-19.27.43-42-8.8-46.27-9.57-45-8-72.85,3.61-111.75,15.36-35.25,10.64-116-6.91-147.7-6.91S4098,16.64,4098,16.64l-55-10c-3.83-.67-36.15-1.35-42-1l-344,20-294-9-176.73-3.43c-19.27.43-42-8.8-46.27-9.57-45-8-72.85,3.61-111.75,15.36-35.25,10.64-116-6.91-147.7-6.91S2732,16.64,2732,16.64l-55-10c-3.83-.67-36.15-1.35-42-1l-344,20-294-9-176.73-3.43c-19.27.43-42-8.8-46.27-9.57-45-8-72.85,3.61-111.75,15.36-35.25,10.64-116-6.91-147.7-6.91L1366,17.64l-55-10c-3.83-.67-36.15-1.35-42-1l-344,20-294-9L454.27,14.21c-19.27.43-42-8.8-46.27-9.57-45-8-72.85,3.61-111.75,15.36-35.25,10.64-116-6.91-147.7-6.91S0,17.64,0,17.64v59H1366v-1H5464v-1H8196v-59Z"/></g></g></svg>