<svg xmlns="http://www.w3.org/2000/svg" viewBox="0 0 29.58 54.11"><defs><style>.cls-1{fill:#c6c2af;}.cls-2{fill:#94c85b;}.cls-3{fill:#84af4b;}.cls-4{fill:#695020;}</style></defs><title>small_tree</title><g id="Layer_2" data-name="Layer 2"><g id="Layer_1-2" data-name="Layer 1"><path class="cls-1" d="M22.73,51c0,1.74-3.56,3.15-7.94,3.15S6.86,52.7,6.86,51s3.55-3.15,7.93-3.15S22.73,49.22,22.73,51Z"/><path class="cls-2" d="M12.26,30.41S3,27.27.77,20.54.91,4.23,9.49.94,29,3.33,29.54,12.61s-5.25,15.55-12.87,17.8Z"/><path class="cls-3" d="M29.54,12.61a12.91,12.91,0,0,0-6.11-10h0c4.33,6.83.71,19.62-8.16,21.89s-13.47-1.87-13.61-2c3.12,5.38,10.6,7.9,10.6,7.9h4.41C24.29,28.16,30.12,21.89,29.54,12.61Z"/><path class="cls-4" d="M13,51.72s.67-23.25.48-24.06a37.3,37.3,0,0,0-2.56-4.46s3,3.32,3.31,1.94.86-11.79.86-11.79.19,10.53.94,10.42,3.89-4.24,3.89-4.24-3.6,5.5-3.6,7.56.28,24.63.28,24.63Z"/></g></g></svg>