<svg xmlns="http://www.w3.org/2000/svg" viewBox="0 0 217.03 49.74"><defs><style>.cls-1{fill:#b517ff;}.cls-2{fill:#9e15ff;}.cls-3{fill:#e595ff;}.cls-4{fill:#b05fff;}.cls-5{fill:#ca6aff;}.cls-6{font-size:15px;fill:#4e455b;font-family:Orchide;}.cls-7{letter-spacing:-0.01em;}</style></defs><title>logo2</title><g id="Layer_2" data-name="Layer 2"><g id="Layer_1-2" data-name="Layer 1"><path class="cls-1" d="M58.44,10.27a10.43,10.43,0,0,1,4.2.84,10.82,10.82,0,0,1,3.41,2.31,10.69,10.69,0,0,1,2.3,3.41,10.43,10.43,0,0,1,.84,4.2v10.8H58.44A10.5,10.5,0,0,1,54.27,31a10.82,10.82,0,0,1-3.46-2.33,10.93,10.93,0,0,1-2.33-3.46,10.85,10.85,0,0,1,0-8.37,10.61,10.61,0,0,1,2.33-3.41,10.93,10.93,0,0,1,3.46-2.31A10.5,10.5,0,0,1,58.44,10.27Zm6.48,17.28V21a6.4,6.4,0,0,0-.5-2.52A6.55,6.55,0,0,0,63,16.44,6.67,6.67,0,0,0,61,15.05a6.23,6.23,0,0,0-2.52-.5,6.43,6.43,0,0,0-2.54.5,6.53,6.53,0,0,0-2.09,1.39,6.39,6.39,0,0,0-1.39,2.07A6.24,6.24,0,0,0,51.91,21a6.44,6.44,0,0,0,.51,2.54,6.37,6.37,0,0,0,1.39,2.09,6.53,6.53,0,0,0,2.09,1.39,6.43,6.43,0,0,0,2.54.5Z"/><path class="cls-1" d="M81.24,10.37a10.43,10.43,0,0,1,4.2.84,11.17,11.17,0,0,1,3.43,2.3,10.67,10.67,0,0,1,2.33,3.41,10.87,10.87,0,0,1,0,8.38,11,11,0,0,1-5.76,5.78,10.43,10.43,0,0,1-4.2.84H74.76v8.64H70.49V21.12a10.5,10.5,0,0,1,.84-4.2,11.08,11.08,0,0,1,2.3-3.41,10.87,10.87,0,0,1,3.44-2.3A10.5,10.5,0,0,1,81.24,10.37Zm2.55,16.78a6.54,6.54,0,0,0,3.48-3.48,6.62,6.62,0,0,0,.5-2.55,6.35,6.35,0,0,0-1.9-4.58,6.33,6.33,0,0,0-2.08-1.39,6.45,6.45,0,0,0-2.55-.51,6.31,6.31,0,0,0-2.52.51,6.52,6.52,0,0,0-3.45,3.45,6.31,6.31,0,0,0-.51,2.52v6.53h6.48A6.62,6.62,0,0,0,83.79,27.15Z"/><path class="cls-1" d="M104.23,10.37a10.43,10.43,0,0,1,4.2.84,11.34,11.34,0,0,1,3.44,2.3,10.8,10.8,0,0,1,2.32,3.41,10.87,10.87,0,0,1,0,8.38,10.91,10.91,0,0,1-5.76,5.78,10.43,10.43,0,0,1-4.2.84H97.75v8.64H93.48V21.12a10.5,10.5,0,0,1,.84-4.2,10.94,10.94,0,0,1,2.31-3.41,10.72,10.72,0,0,1,3.43-2.3A10.5,10.5,0,0,1,104.23,10.37Zm2.55,16.78a6.45,6.45,0,0,0,3.48-3.48,6.62,6.62,0,0,0,.5-2.55,6.48,6.48,0,0,0-.5-2.52,6.62,6.62,0,0,0-1.39-2.06,6.6,6.6,0,0,0-4.64-1.9,6.31,6.31,0,0,0-2.52.51,6.52,6.52,0,0,0-3.45,3.45,6.31,6.31,0,0,0-.51,2.52v6.53h6.48A6.62,6.62,0,0,0,106.78,27.15Z"/><path class="cls-1" d="M119.59,13.44a10.51,10.51,0,0,1,3.58-2.37,10.68,10.68,0,0,1,8.11,0,10.51,10.51,0,0,1,3.58,2.37l1.48,1.49-3,3-1.54-1.48A6.39,6.39,0,0,0,129.67,15a6.47,6.47,0,0,0-4.89,0,6.39,6.39,0,0,0-2.16,1.44,5.84,5.84,0,0,0-1.44,2.11,6.47,6.47,0,0,0,0,4.89,6.39,6.39,0,0,0,1.44,2.16,6.27,6.27,0,0,0,4.6,1.92,6.66,6.66,0,0,0,2.5-.48,5.93,5.93,0,0,0,2.11-1.44l1.54-1.48,3,3-1.48,1.49A10.51,10.51,0,0,1,131.28,31a10.68,10.68,0,0,1-8.11,0,10.51,10.51,0,0,1-3.58-2.37,10.38,10.38,0,0,1-2.35-3.55,11.09,11.09,0,0,1,0-8.12A10.38,10.38,0,0,1,119.59,13.44Z"/><path class="cls-1" d="M142.34,1.63v30.2h-4.27V1.63Z"/><path class="cls-1" d="M165.53,10.27V21a10.5,10.5,0,0,1-.84,4.17A11,11,0,0,1,158.93,31a10.87,10.87,0,0,1-8.38,0,10.69,10.69,0,0,1-3.43-2.33,11,11,0,0,1-2.3-3.46A10.5,10.5,0,0,1,144,21V10.27h4.27V21a6.61,6.61,0,0,0,.5,2.54,6.53,6.53,0,0,0,1.39,2.09,6.67,6.67,0,0,0,2.07,1.39,6.23,6.23,0,0,0,2.52.5,6.43,6.43,0,0,0,2.54-.5,6.53,6.53,0,0,0,2.09-1.39,6.37,6.37,0,0,0,1.39-2.09,6.44,6.44,0,0,0,.51-2.54V10.27Z"/><path class="cls-1" d="M186.17,10.27v4.28h-13a2.08,2.08,0,0,0-1.54.62,2.12,2.12,0,0,0-.62,1.54,2.22,2.22,0,0,0,.62,1.56,2.06,2.06,0,0,0,1.54.64h8.64a6.24,6.24,0,0,1,2.52.51,6.57,6.57,0,0,1,2.06,1.37,6.08,6.08,0,0,1,1.4,2,6.4,6.4,0,0,1,.5,2.52,6.5,6.5,0,0,1-4,6,6.24,6.24,0,0,1-2.52.51h-13V27.55h13a2.11,2.11,0,0,0,1.58-.62,2.13,2.13,0,0,0,.63-1.58,2.14,2.14,0,0,0-2.21-2.16h-8.64a6.37,6.37,0,0,1-4.56-1.9,6.74,6.74,0,0,1-1.37-2.06,6.48,6.48,0,0,1-.5-2.52,6.4,6.4,0,0,1,.5-2.52,6.37,6.37,0,0,1,3.41-3.41,6.24,6.24,0,0,1,2.52-.51Z"/><path class="cls-1" d="M202.54,27.55v4.28h-2.12a10.5,10.5,0,0,1-4.17-.84,10.89,10.89,0,0,1-5.79-5.79,10.5,10.5,0,0,1-.84-4.17V1.63h4.28v13h8.64v4.28H193.9V21a6.43,6.43,0,0,0,.5,2.54,6.36,6.36,0,0,0,3.48,3.48,6.43,6.43,0,0,0,2.54.5Z"/><path class="cls-1" d="M217,10.27v4.28h-2.16a6.3,6.3,0,0,0-2.52.5,6.62,6.62,0,0,0-2.06,1.39,6.39,6.39,0,0,0-1.39,2.07,6.24,6.24,0,0,0-.51,2.52v10.8h-4.32V21a10.43,10.43,0,0,1,.84-4.2,10.61,10.61,0,0,1,2.33-3.41,10.93,10.93,0,0,1,3.46-2.31,10.5,10.5,0,0,1,4.17-.84Z"/><path class="cls-2" d="M10.8,0A10.5,10.5,0,0,1,15,.84a11,11,0,0,1,3.41,2.3,11.08,11.08,0,0,1,2.3,3.41,10.5,10.5,0,0,1,.84,4.2v10.8H10.8a10.58,10.58,0,0,1-4.18-.84,10.73,10.73,0,0,1-3.45-2.33A10.89,10.89,0,0,1,.84,14.93,10.55,10.55,0,0,1,0,10.75a10.5,10.5,0,0,1,.84-4.2A10.83,10.83,0,0,1,3.17,3.14,11.15,11.15,0,0,1,6.62.84,10.58,10.58,0,0,1,10.8,0Zm6.48,17.28V10.75a6.5,6.5,0,0,0-4-6,6.24,6.24,0,0,0-2.52-.51,6.5,6.5,0,0,0-6,4,6.31,6.31,0,0,0-.51,2.52,6.45,6.45,0,0,0,.51,2.55,6.33,6.33,0,0,0,1.39,2.08,6.4,6.4,0,0,0,2.09,1.4,6.57,6.57,0,0,0,2.54.5Z"/><path class="cls-3" d="M41.71,6.55a10.67,10.67,0,0,0-2.33-3.41A11.15,11.15,0,0,0,35.93.84a10.87,10.87,0,0,0-8.38,0,10.78,10.78,0,0,0-5.71,5.71,10.5,10.5,0,0,0-.84,4.2v10.8H31.75a10.55,10.55,0,0,0,4.18-.84,10.94,10.94,0,0,0,5.78-5.78,10.55,10.55,0,0,0,.84-4.18A10.5,10.5,0,0,0,41.71,6.55ZM37.78,13.3a6.54,6.54,0,0,1-3.48,3.48,6.62,6.62,0,0,1-2.55.5H25.27V10.75a6.31,6.31,0,0,1,.51-2.52,6.52,6.52,0,0,1,3.45-3.45,6.31,6.31,0,0,1,2.52-.51,6.45,6.45,0,0,1,2.55.51,6.33,6.33,0,0,1,2.08,1.39,6.35,6.35,0,0,1,1.9,4.58A6.62,6.62,0,0,1,37.78,13.3Z"/><path class="cls-4" d="M10.8,21a10.58,10.58,0,0,0-4.18.84A10.94,10.94,0,0,0,.84,27.62,10.87,10.87,0,0,0,.84,36a10.72,10.72,0,0,0,2.33,3.41,11.15,11.15,0,0,0,3.45,2.3,10.58,10.58,0,0,0,4.18.84,10.5,10.5,0,0,0,4.2-.84A10.78,10.78,0,0,0,20.71,36a10.5,10.5,0,0,0,.84-4.2V21Zm6.48,10.8a6.4,6.4,0,0,1-.5,2.52,6.65,6.65,0,0,1-3.46,3.46,6.4,6.4,0,0,1-2.52.5,6.57,6.57,0,0,1-2.54-.5,6.5,6.5,0,0,1-3.48-3.46,6.24,6.24,0,0,1-.51-2.52,6.52,6.52,0,0,1,6.53-6.53h6.48Z"/><path class="cls-5" d="M31.75,42.55a10.5,10.5,0,0,1-4.2-.84,11.08,11.08,0,0,1-3.41-2.3A11,11,0,0,1,21.84,36,10.5,10.5,0,0,1,21,31.8V21H31.75a10.55,10.55,0,0,1,4.18.84,10.89,10.89,0,0,1,3.45,2.33,10.73,10.73,0,0,1,2.33,3.45,10.65,10.65,0,0,1-2.33,11.79,11.15,11.15,0,0,1-3.45,2.3A10.55,10.55,0,0,1,31.75,42.55ZM25.27,25.27V31.8a6.24,6.24,0,0,0,.51,2.52,6.43,6.43,0,0,0,6,4,6.62,6.62,0,0,0,2.55-.5,6.36,6.36,0,0,0,2.08-1.4,6.49,6.49,0,0,0,1.4-2.06,6.4,6.4,0,0,0,.5-2.52,6.57,6.57,0,0,0-.5-2.54,6.4,6.4,0,0,0-1.4-2.09,6.33,6.33,0,0,0-2.08-1.39,6.45,6.45,0,0,0-2.55-.51Z"/><text class="cls-6" transform="translate(148.93 42.95)">innovation at wo<tspan class="cls-7" x="53.88" y="0">r</tspan><tspan x="56.95" y="0">k</tspan></text></g></g></svg>