<svg xmlns="http://www.w3.org/2000/svg" viewBox="0 0 217.03 42.59"><defs><style>.cls-1{fill:#9e15ff;}.cls-2{fill:#c792ff;}.cls-3{fill:#4e455b;}</style></defs><title>Asset 3</title><g id="Layer_2" data-name="Layer 2"><g id="Layer_1-2" data-name="Layer 1"><path class="cls-1" d="M66.05,13.42a10.82,10.82,0,0,0-3.41-2.31,10.85,10.85,0,0,0-8.37,0,10.93,10.93,0,0,0-3.46,2.31,10.61,10.61,0,0,0-2.33,3.41,10.85,10.85,0,0,0,0,8.37,10.93,10.93,0,0,0,2.33,3.46A10.82,10.82,0,0,0,54.27,31a10.5,10.5,0,0,0,4.17.84H69.19V21a10.43,10.43,0,0,0-.84-4.2A10.69,10.69,0,0,0,66.05,13.42ZM64.92,27.55H58.44a6.43,6.43,0,0,1-2.54-.5,6.53,6.53,0,0,1-2.09-1.39,6.37,6.37,0,0,1-1.39-2.09A6.44,6.44,0,0,1,51.91,21a6.24,6.24,0,0,1,.51-2.52,6.39,6.39,0,0,1,1.39-2.07,6.53,6.53,0,0,1,2.09-1.39,6.43,6.43,0,0,1,2.54-.5,6.23,6.23,0,0,1,2.52.5A6.67,6.67,0,0,1,63,16.44a6.55,6.55,0,0,1,1.39,2.07,6.4,6.4,0,0,1,.5,2.52Z"/><path class="cls-1" d="M88.87,13.51a11.17,11.17,0,0,0-3.43-2.3,10.85,10.85,0,0,0-8.37,0,10.87,10.87,0,0,0-3.44,2.3,11.08,11.08,0,0,0-2.3,3.41,10.5,10.5,0,0,0-.84,4.2V40.56h4.27V31.92h6.48a10.43,10.43,0,0,0,4.2-.84A11,11,0,0,0,91.2,25.3a10.87,10.87,0,0,0,0-8.38A10.67,10.67,0,0,0,88.87,13.51Zm-1.6,10.16a6.54,6.54,0,0,1-3.48,3.48,6.62,6.62,0,0,1-2.55.5H74.76V21.12a6.31,6.31,0,0,1,.51-2.52,6.52,6.52,0,0,1,3.45-3.45,6.31,6.31,0,0,1,2.52-.51,6.45,6.45,0,0,1,2.55.51,6.33,6.33,0,0,1,2.08,1.39,6.35,6.35,0,0,1,1.9,4.58A6.62,6.62,0,0,1,87.27,23.67Z"/><path class="cls-1" d="M111.87,13.51a11.34,11.34,0,0,0-3.44-2.3,10.85,10.85,0,0,0-8.37,0,10.72,10.72,0,0,0-3.43,2.3,10.94,10.94,0,0,0-2.31,3.41,10.5,10.5,0,0,0-.84,4.2V40.56h4.27V31.92h6.48a10.43,10.43,0,0,0,4.2-.84,10.91,10.91,0,0,0,5.76-5.78,10.87,10.87,0,0,0,0-8.38A10.8,10.8,0,0,0,111.87,13.51Zm-1.61,10.16a6.45,6.45,0,0,1-3.48,3.48,6.62,6.62,0,0,1-2.55.5H97.75V21.12a6.31,6.31,0,0,1,.51-2.52,6.52,6.52,0,0,1,3.45-3.45,6.31,6.31,0,0,1,2.52-.51,6.6,6.6,0,0,1,4.64,1.9,6.62,6.62,0,0,1,1.39,2.06,6.48,6.48,0,0,1,.5,2.52A6.62,6.62,0,0,1,110.26,23.67Z"/><path class="cls-1" d="M122.62,16.47A6.39,6.39,0,0,1,124.78,15a6.47,6.47,0,0,1,4.89,0,6.39,6.39,0,0,1,2.16,1.44L133.37,18l3-3-1.48-1.49a10.51,10.51,0,0,0-3.58-2.37,10.68,10.68,0,0,0-8.11,0,10.51,10.51,0,0,0-3.58,2.37A10.38,10.38,0,0,0,117.24,17a11.09,11.09,0,0,0,0,8.12,10.38,10.38,0,0,0,2.35,3.55A10.51,10.51,0,0,0,123.17,31a10.68,10.68,0,0,0,8.11,0,10.51,10.51,0,0,0,3.58-2.37l1.48-1.49-3-3-1.54,1.48a5.93,5.93,0,0,1-2.11,1.44,6.66,6.66,0,0,1-2.5.48,6.27,6.27,0,0,1-4.6-1.92,6.39,6.39,0,0,1-1.44-2.16,6.47,6.47,0,0,1,0-4.89A5.84,5.84,0,0,1,122.62,16.47Z"/><rect class="cls-1" x="138.07" y="1.63" width="4.27" height="30.19"/><path class="cls-1" d="M161.26,21a6.44,6.44,0,0,1-.51,2.54,6.37,6.37,0,0,1-1.39,2.09,6.53,6.53,0,0,1-2.09,1.39,6.43,6.43,0,0,1-2.54.5,6.23,6.23,0,0,1-2.52-.5,6.67,6.67,0,0,1-2.07-1.39,6.53,6.53,0,0,1-1.39-2.09,6.61,6.61,0,0,1-.5-2.54V10.27H144V21a10.5,10.5,0,0,0,.84,4.17,11,11,0,0,0,2.3,3.46A10.69,10.69,0,0,0,150.55,31a10.87,10.87,0,0,0,8.38,0,11,11,0,0,0,5.76-5.79,10.5,10.5,0,0,0,.84-4.17V10.27h-4.27Z"/><path class="cls-1" d="M186.38,20.79a6.57,6.57,0,0,0-2.06-1.37,6.24,6.24,0,0,0-2.52-.51h-8.64a2.06,2.06,0,0,1-1.54-.64,2.22,2.22,0,0,1-.62-1.56,2.12,2.12,0,0,1,.62-1.54,2.08,2.08,0,0,1,1.54-.62h13V10.27h-13a6.24,6.24,0,0,0-2.52.51,6.39,6.39,0,0,0-3.91,5.93,6.48,6.48,0,0,0,.5,2.52,6.74,6.74,0,0,0,1.37,2.06,6.37,6.37,0,0,0,4.56,1.9h8.64A2.14,2.14,0,0,1,184,25.35a2.13,2.13,0,0,1-.63,1.58,2.11,2.11,0,0,1-1.58.62h-13v4.28h13a6.24,6.24,0,0,0,2.52-.51,6.51,6.51,0,0,0,3.46-8.49A6.08,6.08,0,0,0,186.38,20.79Z"/><path class="cls-1" d="M193.9,1.63h-4.28V21a10.5,10.5,0,0,0,.84,4.17A10.89,10.89,0,0,0,196.25,31a10.5,10.5,0,0,0,4.17.84h2.12V27.55h-2.12a6.43,6.43,0,0,1-2.54-.5,6.36,6.36,0,0,1-3.48-3.48,6.43,6.43,0,0,1-.5-2.54V18.87h8.64V14.59H193.9Z"/><path class="cls-1" d="M214.87,10.27a10.5,10.5,0,0,0-4.17.84,10.93,10.93,0,0,0-3.46,2.31,10.61,10.61,0,0,0-2.33,3.41,10.43,10.43,0,0,0-.84,4.2v10.8h4.32V21a6.24,6.24,0,0,1,.51-2.52,6.39,6.39,0,0,1,1.39-2.07,6.62,6.62,0,0,1,2.06-1.39,6.3,6.3,0,0,1,2.52-.5H217V10.27Z"/><path class="cls-2" d="M10.8,0A10.5,10.5,0,0,1,15,.84a11,11,0,0,1,3.41,2.3,11.08,11.08,0,0,1,2.3,3.41,10.5,10.5,0,0,1,.84,4.2v10.8H10.8a10.58,10.58,0,0,1-4.18-.84,10.73,10.73,0,0,1-3.45-2.33A10.89,10.89,0,0,1,.84,14.93,10.55,10.55,0,0,1,0,10.75a10.5,10.5,0,0,1,.84-4.2A10.83,10.83,0,0,1,3.17,3.14,11.15,11.15,0,0,1,6.62.84,10.58,10.58,0,0,1,10.8,0Zm6.48,17.28V10.75a6.5,6.5,0,0,0-4-6,6.24,6.24,0,0,0-2.52-.51,6.5,6.5,0,0,0-6,4,6.31,6.31,0,0,0-.51,2.52,6.45,6.45,0,0,0,.51,2.55,6.33,6.33,0,0,0,1.39,2.08,6.4,6.4,0,0,0,2.09,1.4,6.57,6.57,0,0,0,2.54.5Z"/><path class="cls-1" d="M35.93.84a11.15,11.15,0,0,1,3.45,2.3,10.67,10.67,0,0,1,2.33,3.41,10.5,10.5,0,0,1,.84,4.2,10.55,10.55,0,0,1-.84,4.18,10.94,10.94,0,0,1-5.78,5.78,10.55,10.55,0,0,1-4.18.84H21V10.75a10.5,10.5,0,0,1,.84-4.2A10.78,10.78,0,0,1,27.55.84a10.87,10.87,0,0,1,8.38,0Z"/><path class="cls-2" d="M31.75,17.28a6.62,6.62,0,0,0,2.55-.5,6.54,6.54,0,0,0,3.48-3.48,6.62,6.62,0,0,0,.5-2.55,6.35,6.35,0,0,0-1.9-4.58A6.33,6.33,0,0,0,34.3,4.78a6.45,6.45,0,0,0-2.55-.51,6.31,6.31,0,0,0-2.52.51,6.52,6.52,0,0,0-3.45,3.45,6.31,6.31,0,0,0-.51,2.52v6.53Z"/><path class="cls-1" d="M6.62,41.71a11.15,11.15,0,0,1-3.45-2.3A10.72,10.72,0,0,1,.84,36a10.87,10.87,0,0,1,0-8.38,10.94,10.94,0,0,1,5.78-5.78A10.58,10.58,0,0,1,10.8,21H21.55V31.8a10.5,10.5,0,0,1-.84,4.2A10.78,10.78,0,0,1,15,41.71a10.5,10.5,0,0,1-4.2.84A10.58,10.58,0,0,1,6.62,41.71Z"/><path class="cls-2" d="M10.8,25.27A6.52,6.52,0,0,0,4.27,31.8a6.24,6.24,0,0,0,.51,2.52,6.5,6.5,0,0,0,3.48,3.46,6.57,6.57,0,0,0,2.54.5,6.4,6.4,0,0,0,2.52-.5,6.65,6.65,0,0,0,3.46-3.46,6.4,6.4,0,0,0,.5-2.52V25.27Z"/><path class="cls-2" d="M31.75,42.55a10.5,10.5,0,0,1-4.2-.84,11.08,11.08,0,0,1-3.41-2.3A11,11,0,0,1,21.84,36,10.5,10.5,0,0,1,21,31.8V21H31.75a10.55,10.55,0,0,1,4.18.84,10.89,10.89,0,0,1,3.45,2.33,10.73,10.73,0,0,1,2.33,3.45,10.65,10.65,0,0,1-2.33,11.79,11.15,11.15,0,0,1-3.45,2.3A10.55,10.55,0,0,1,31.75,42.55ZM25.27,25.27V31.8a6.24,6.24,0,0,0,.51,2.52,6.43,6.43,0,0,0,6,4,6.62,6.62,0,0,0,2.55-.5,6.36,6.36,0,0,0,2.08-1.4,6.49,6.49,0,0,0,1.4-2.06,6.4,6.4,0,0,0,.5-2.52,6.57,6.57,0,0,0-.5-2.54,6.4,6.4,0,0,0-1.4-2.09,6.33,6.33,0,0,0-2.08-1.39,6.45,6.45,0,0,0-2.55-.51Z"/><path class="cls-3" d="M149,41.75a.88.88,0,0,1-.31-.8,5.19,5.19,0,0,1,.38-1.86c0-.09.07-.17.12-.27.26.18.42.21.42.35a5.75,5.75,0,0,1-.14.81,7.28,7.28,0,0,0-.18,1.18,1,1,0,0,0,.06.37.9.9,0,0,0,.53-.16,3.91,3.91,0,0,0,1-.81c.2-.24.39-.49.58-.73l0,0s.05,0,.05,0a.22.22,0,0,0,.09,0v0s0-.11.08-.11l0,0a.28.28,0,0,1,0,.1,4.72,4.72,0,0,1-1.44,2,1.15,1.15,0,0,1-.67.3C149.33,42.12,149.23,42,149,41.75Zm.31-2.42v0s0,0-.05,0l-.13.23v.07A.75.75,0,0,1,149,40a.43.43,0,0,1,0,.11.18.18,0,0,1-.08.16l.06.26C149.09,40.07,149.2,39.71,149.29,39.33Zm.18-1.48a1.43,1.43,0,0,1,.22-.85.16.16,0,0,1,.11-.08.15.15,0,0,1,.13.14s0,0,0,.06a3.24,3.24,0,0,1-.21.35l0,.31.05,0a2.61,2.61,0,0,1,.3-.63.09.09,0,0,1,.08-.05c.11,0,.11.08.11.19a.52.52,0,0,1,0,.18q-.16.42-.33.81C149.59,38.21,149.47,38.07,149.47,37.85Zm1.61,2.77v0h0v0Zm.23-.3,0-.08s-.05,0-.06.08Zm.18-.22a.14.14,0,0,0-.14.11Z"/><path class="cls-3" d="M151.34,42a1.09,1.09,0,0,1-.31-.76v-.19c0-.1,0-.2,0-.3a8.42,8.42,0,0,1,.5-1.49l.07-.12.07,0c.07.07.15.12.23.19a.39.39,0,0,1,0,.15,2.07,2.07,0,0,1-.08.42c-.08.35-.17.7-.26,1.06a.71.71,0,0,0,0,.26.36.36,0,0,0,0,.14l.14-.1.54-.66a7.23,7.23,0,0,1,1.14-1.14,1.73,1.73,0,0,1,.32-.2.3.3,0,0,1,.17,0,.36.36,0,0,1,.25.13.66.66,0,0,0,.15.14.32.32,0,0,1,.18.33v0a3.19,3.19,0,0,1-.06.54c0,.17-.06.34-.08.51v.29a.74.74,0,0,0,.17,0,1.45,1.45,0,0,0,.58-.42l.7-.84s0-.12.12-.12h0a1.1,1.1,0,0,1,.14.11A1.06,1.06,0,0,1,156,40a8.17,8.17,0,0,1-.77,1.26,1.21,1.21,0,0,1-.48.38.84.84,0,0,1-.24.06.48.48,0,0,1-.37-.19l-.15-.19a.67.67,0,0,1-.17-.44v0a4.07,4.07,0,0,1,.06-.61c0-.16.08-.32.08-.5v0a.55.55,0,0,0-.34.19,5.63,5.63,0,0,0-1,1.1l-.5.7a2.35,2.35,0,0,1-.3.33.34.34,0,0,1-.25.12A.41.41,0,0,1,151.34,42Zm.65-.63-.2.19s-.12.09-.12.17h0C151.91,41.58,151.91,41.57,152,41.38Zm-.29-1.69h0Zm.5,1.41a.32.32,0,0,0-.19.26A.29.29,0,0,0,152.2,41.1Zm.2-.28a.36.36,0,0,0-.19.26A.25.25,0,0,0,152.4,40.82Zm.22-.26a.34.34,0,0,0-.2.25C152.55,40.78,152.58,40.66,152.62,40.56Zm.54-.52c-.13,0-.24.08-.25.17Zm1.93,1-.18.18C155.06,41.11,155.06,41.11,155.09,41Zm.3-.29v0h-.05s0,0,0,0Zm.24-.37v0s-.07,0-.07.09v0A.13.13,0,0,0,155.63,40.35Zm.13-.21-.12.17A.17.17,0,0,0,155.76,40.14Zm.16-.18c-.09,0-.12.07-.15.15S155.88,40,155.92,40Z"/><path class="cls-3" d="M155.71,42a1.09,1.09,0,0,1-.31-.76v-.19c0-.1,0-.2,0-.3a7.71,7.71,0,0,1,.51-1.49l.06-.12.07,0c.07.07.15.12.23.19a.39.39,0,0,1,0,.15,2.07,2.07,0,0,1-.08.42c-.08.35-.17.7-.26,1.06a.9.9,0,0,0,0,.4l.14-.1c.18-.22.37-.44.54-.66a6.89,6.89,0,0,1,1.15-1.14,1.38,1.38,0,0,1,.31-.2.33.33,0,0,1,.18,0,.32.32,0,0,1,.24.13.66.66,0,0,0,.15.14.32.32,0,0,1,.18.33v0a3.19,3.19,0,0,1-.05.54c0,.17-.06.34-.08.51a.61.61,0,0,0,0,.14v.15a.74.74,0,0,0,.17,0,1.45,1.45,0,0,0,.58-.42c.24-.27.46-.56.71-.84,0,0,0-.12.11-.12h0a.67.67,0,0,1,.14.11.6.6,0,0,1-.06.19,8.17,8.17,0,0,1-.77,1.26,1.26,1.26,0,0,1-.47.38,1,1,0,0,1-.25.06.5.5,0,0,1-.37-.19c0-.06-.09-.13-.15-.19a.73.73,0,0,1-.17-.44v0c0-.21,0-.41.06-.61s.08-.32.08-.5v0a.55.55,0,0,0-.34.19,5.63,5.63,0,0,0-1,1.1c-.17.24-.32.47-.5.7a2.28,2.28,0,0,1-.29.33.38.38,0,0,1-.26.12A.43.43,0,0,1,155.71,42Zm.66-.63-.21.19s-.12.09-.12.17h0C156.28,41.58,156.29,41.57,156.37,41.38Zm-.3-1.69Zm.5,1.41a.32.32,0,0,0-.19.26A.28.28,0,0,0,156.57,41.1Zm.21-.28a.34.34,0,0,0-.19.26A.27.27,0,0,0,156.78,40.82Zm.22-.26a.33.33,0,0,0-.21.25C156.92,40.78,157,40.66,157,40.56Zm.53-.52c-.12,0-.23.08-.25.17Zm1.93,1-.18.18C159.43,41.11,159.43,41.11,159.46,41Zm.31-.29v0h-.05s0,0,0,0Zm.23-.37v0s-.07,0-.07.09v0A.11.11,0,0,0,160,40.35Zm.13-.21-.12.17A.17.17,0,0,0,160.13,40.14Zm.16-.18c-.09,0-.12.07-.14.15S160.26,40,160.29,40Z"/><path class="cls-3" d="M159.63,41.36a.86.86,0,0,1,0-.22,4.42,4.42,0,0,1,.84-1.92.67.67,0,0,1,.15-.13l.25.18,0,.1a5.91,5.91,0,0,0-.58,1.28,2.72,2.72,0,0,0-.18.9c0,.08,0,.17,0,.28a1.29,1.29,0,0,0,.24,0,2.34,2.34,0,0,0,1-.94l-.2-.26a.84.84,0,0,1-.15-.49.87.87,0,0,1,.33-.7.14.14,0,0,1,.11,0,.24.24,0,0,1,.14.06c.14.12.36.26.4.47a4,4,0,0,1,.05.59.89.89,0,0,0,.45-.32,5.26,5.26,0,0,0,.4-.41l0,.16.15,0,0,0a2.43,2.43,0,0,1-.48.82.81.81,0,0,1-.66.36c-.19,0-.17.08-.3.29-.28.45-.82,1-1.26,1S159.63,41.88,159.63,41.36Zm.48-1,.37-.76a.18.18,0,0,0-.17.13l-.37.82C160.05,40.56,160.07,40.47,160.11,40.39Zm-.17.19v.11h0Zm.56-1,0,0v.06Zm.13-.24,0,0h0Zm.6,2.22,0,0a1.37,1.37,0,0,0-.16.18C161.14,41.7,161.18,41.62,161.23,41.55Zm.19-1.86-.15.22C161.4,39.86,161.4,39.86,161.42,39.69Zm.06,1.53v0a.08.08,0,0,0-.09.09v0C161.46,41.3,161.48,41.27,161.48,41.22Zm.06-.06v-.08s0,0,0,0v.06S161.54,41.17,161.54,41.16Zm.09-.87a.17.17,0,0,0,0-.11.54.54,0,0,0-.06.16s0,0,.05.09A.25.25,0,0,0,161.63,40.29Zm1.19-.11v0l-.06,0v0Z"/><path class="cls-3" d="M162.77,41.16V41a2.66,2.66,0,0,1,0-.3,5.07,5.07,0,0,1,.48-1.53,1,1,0,0,1,.1-.09.13.13,0,0,1,0,.08c0,.07,0,.12,0,.2v0l.19-.19a.63.63,0,0,1,0,.14c0,.16-.07.33-.1.5-.06.34-.12.68-.16,1,0,.1,0,.21,0,.32a2.64,2.64,0,0,0,0,.28,1.33,1.33,0,0,0,.21,0,3.4,3.4,0,0,0,1.13-1,.2.2,0,0,0,.06-.15,2,2,0,0,1,0-.32,1.43,1.43,0,0,1,.49-1.05l.08,0a.14.14,0,0,1,.11,0l.33.33,0,.15a4,4,0,0,1-.37,1.1.74.74,0,0,0,.18,0,.78.78,0,0,0,.23,0,2.27,2.27,0,0,0,.85-.55.41.41,0,0,0-.11.29,1.11,1.11,0,0,0,.25-.41l.15,0a2.81,2.81,0,0,1-.69,1,1,1,0,0,1-.64.25.82.82,0,0,1-.41-.11c-.12,0-.15.14-.21.22a3,3,0,0,1-1.12,1,.53.53,0,0,1-.24.06C163.19,42.1,162.79,41.58,162.77,41.16Zm1.23.32h0v0Zm.5-.45c-.11,0-.14.08-.17.16A.23.23,0,0,0,164.5,41Zm.3-.31s0,0,0-.07,0,0,0-.06l-.11.16,0,0A.24.24,0,0,0,164.8,40.72Zm.21-1.24v0c-.06,0-.07.06-.07.11A.09.09,0,0,0,165,39.48Zm.1-.12V39.3a.11.11,0,0,0-.08.11v0S165.1,39.41,165.11,39.36Zm.28.35c-.17.12-.17.12-.23.42C165.29,40,165.3,39.84,165.39,39.71Zm1.49,0h0Z"/><path class="cls-3" d="M166.09,41.93s0-.07-.08-.1a.62.62,0,0,1-.22-.48,1.26,1.26,0,0,1,0-.27,4,4,0,0,1,.15-.45,6.64,6.64,0,0,1,1.47-1.94,1.18,1.18,0,0,1,.53-.31,1.43,1.43,0,0,1,.29,0h0a.23.23,0,0,1,.21.11c.05.06.08.15.15.2a.3.3,0,0,1,.14.25.65.65,0,0,1,0,.19c0,.09,0,.19-.15.23s-.07-.27-.15-.4a.71.71,0,0,0-.39.14,2,2,0,0,0-.33.26A5.56,5.56,0,0,0,166.54,41a.34.34,0,0,0-.07.16.23.23,0,0,0,0,.09l.25-.16,1.12-.91a3.86,3.86,0,0,1,.38-.3.2.2,0,0,1,.13,0,.14.14,0,0,1,.12.09,1,1,0,0,0,.32.27.62.62,0,0,1,0,.19c0,.12,0,.24,0,.36s0,.36,0,.55a1.16,1.16,0,0,0,0,.18h.09a.49.49,0,0,0,.26-.1,4.71,4.71,0,0,0,.42-.36,6.6,6.6,0,0,0,.81-1,1.23,1.23,0,0,1,.25-.3l0,.24.2-.15s0,.07,0,.08v0a1.89,1.89,0,0,1-.09.21c-.2.34-.38.7-.59,1a4.85,4.85,0,0,1-.49.61,1.07,1.07,0,0,1-.34.25.69.69,0,0,1-.24,0,.62.62,0,0,1-.42-.19,1.26,1.26,0,0,1-.36-.86v0a1.21,1.21,0,0,0,0-.19h-.06c-.07,0-.1.06-.15.1l-1,.89a2.86,2.86,0,0,1-.4.28.54.54,0,0,1-.27.09A.45.45,0,0,1,166.09,41.93Zm0-1-.08,0h0l.08.06Zm.07-.1v0a.84.84,0,0,0-.06.14C166.19,40.89,166.2,40.87,166.2,40.83Zm.07-.14v0c-.06,0-.06.06-.07.1A.08.08,0,0,0,166.27,40.69Zm.13-.16A8,8,0,0,1,167.56,39a.07.07,0,0,0,0-.06.09.09,0,0,0,0,0,1.62,1.62,0,0,0-.19.17,5.21,5.21,0,0,0-.78.92c-.06.08-.09.2-.21.23h0v.15h0c0,.08,0,.16-.05.24A.68.68,0,0,0,166.4,40.53Zm.45.92v0l-.09.06h.05S166.85,41.48,166.85,41.45Zm.38-.34v0c0,.09-.13.08-.13.19v0C167.14,41.22,167.23,41.22,167.23,41.11Zm.53-.48-.23.2C167.72,40.76,167.72,40.76,167.76,40.63Zm0-1.83h0a0,0,0,0,0,0,0Zm.47,1.49h0s-.07,0-.07.07v0Zm1.55.84-.39.4A.62.62,0,0,0,169.79,41.13Zm.23-.24,0,0s-.07.06-.07.11v0C170,41,170,40.93,170,40.89Zm.26-.41a.75.75,0,0,0-.27.36h.05A.6.6,0,0,0,170.28,40.48Zm.13-.21a.21.21,0,0,0-.12.19A.19.19,0,0,0,170.41,40.27Zm.19-.32a.54.54,0,0,0-.19.3A.34.34,0,0,0,170.6,40Z"/><path class="cls-3" d="M171.07,42.1a1.39,1.39,0,0,1-.59-.59,2.12,2.12,0,0,1-.17-.86,5.91,5.91,0,0,1,.12-1.18,16,16,0,0,1,.82-3l.09-.27a.16.16,0,0,0-.13-.08l-2.46.16a.91.91,0,0,1-.27,0v-.22a6.68,6.68,0,0,1,1.4-.28c.2,0,.67-.08,1.43-.14l.31,0c.22-.49.45-1,.69-1.4.05-.12.1-.19.17-.19a.14.14,0,0,1,.09,0c.09.06.14.11.14.14a.15.15,0,0,1,0,.09c-.11.36-.25.73-.39,1.09a1.36,1.36,0,0,1,0,.16h.21l1.17,0c.31,0,.59,0,.82,0a5.48,5.48,0,0,1,.83.15.64.64,0,0,1,.33.16c0,.1,0,.21,0,.33a.2.2,0,0,1-.08,0l-.06,0a8.83,8.83,0,0,0-2-.14c-.32,0-.62,0-.91,0l-.57,0a2.64,2.64,0,0,0-.11.29,15.09,15.09,0,0,0-1,4.68,1.26,1.26,0,0,0,.05.33.44.44,0,0,0,0,.1.42.42,0,0,0,.09.16h.11a.41.41,0,0,0,.3-.11,3.28,3.28,0,0,0,.59-.45,11.79,11.79,0,0,0,1-1.26s0,0,0,0a.08.08,0,0,1,0,0,.06.06,0,0,0,0,0l.27-.24,0,.16a6.94,6.94,0,0,1-1.23,1.88,1,1,0,0,1-.69.39A.59.59,0,0,1,171.07,42.1Zm-2-6Zm.42-.05h0a.39.39,0,0,0-.15,0,.23.23,0,0,0-.16.08Zm1-.08-.26,0a.8.8,0,0,0-.3.06Zm.6,0a.36.36,0,0,0,.26-.09l-.62,0a.31.31,0,0,0-.24.09Zm-.32,3.79a18.81,18.81,0,0,1,.52-2.18c0-.12.19-.56.43-1.29a.2.2,0,0,0-.13.1c-.34,1-.55,1.61-.63,1.83v.08a.28.28,0,0,1-.09.2.19.19,0,0,1,0,.08.31.31,0,0,1-.08.19v0s0,0,0,0a1.31,1.31,0,0,0-.07.44.21.21,0,0,1-.05.13l0,.06a.45.45,0,0,1,0,.16.36.36,0,0,1-.1.25l.07.36Zm-.14,0h0v.15ZM172,35.46l0,0h0Zm.15-.21a2.25,2.25,0,0,1,.08-.24.62.62,0,0,0-.22.43A.38.38,0,0,0,172.1,35.25Zm.2-.52a1.08,1.08,0,0,1,.08-.19.51.51,0,0,0-.19.44Zm1.59,1.05-.46,0a5.88,5.88,0,0,0-1.11.1Zm-1.47-1.42a.18.18,0,0,0,0,.1v0Zm.32,6.34,0,0,0,0v0Zm.36-.45a.21.21,0,0,0-.18.1Zm0-.2a.3.3,0,0,0,0,.1s0,.06,0,.09Zm1.56-4.23h-.33l0,0h.32Zm.48.09,0,0h0l0,0Z"/><path class="cls-3" d="M173.12,41.75a.88.88,0,0,1-.31-.8,5.19,5.19,0,0,1,.38-1.86,2.19,2.19,0,0,1,.13-.27c.25.18.41.21.41.35a5.75,5.75,0,0,1-.14.81,7.28,7.28,0,0,0-.18,1.18,1.19,1.19,0,0,0,.06.37.9.9,0,0,0,.53-.16,3.91,3.91,0,0,0,1-.81c.2-.24.39-.49.58-.73l0,0s0,0,0,0a.22.22,0,0,0,.09,0v0s0-.11.08-.11l0,0a.28.28,0,0,1,0,.1,4.72,4.72,0,0,1-1.44,2,1.15,1.15,0,0,1-.67.3C173.47,42.12,173.37,42,173.12,41.75Zm.31-2.42v0s0,0-.05,0l-.13.23v.07a.75.75,0,0,1-.14.41.43.43,0,0,1,0,.11.18.18,0,0,1-.08.16l.06.26C173.23,40.07,173.34,39.71,173.43,39.33Zm.18-1.48a1.51,1.51,0,0,1,.22-.85.15.15,0,0,1,.12-.08c.07,0,.12.09.12.14s0,0,0,.06a3.24,3.24,0,0,1-.21.35l0,.31.05,0a2.61,2.61,0,0,1,.3-.63.09.09,0,0,1,.09-.05c.1,0,.1.08.1.19a.52.52,0,0,1,0,.18q-.17.42-.33.81C173.73,38.21,173.61,38.07,173.61,37.85Zm1.61,2.77v0h0v0Zm.23-.3,0-.08s-.05,0-.06.08Zm.18-.22a.14.14,0,0,0-.14.11Z"/><path class="cls-3" d="M175,41.36a1.8,1.8,0,0,1,0-.22,4.32,4.32,0,0,1,.85-1.92.5.5,0,0,1,.15-.13,1.71,1.71,0,0,0,.25.18l0,.1a6,6,0,0,0-.59,1.28,3,3,0,0,0-.17.9c0,.08,0,.17,0,.28a1.57,1.57,0,0,0,.24,0,2.26,2.26,0,0,0,1-.94l-.19-.26a.78.78,0,0,1-.16-.49.9.9,0,0,1,.33-.7.16.16,0,0,1,.12,0,.22.22,0,0,1,.13.06c.15.12.37.26.4.47a4.07,4.07,0,0,1,.06.59.93.93,0,0,0,.45-.32,5.24,5.24,0,0,0,.39-.41l.05.16.15,0s0,0,0,0a2.58,2.58,0,0,1-.47.82.82.82,0,0,1-.67.36c-.18,0-.17.08-.3.29-.28.45-.82,1-1.26,1S175,41.88,175,41.36Zm.49-1,.36-.76c-.09,0-.13.06-.16.13l-.37.82C175.45,40.56,175.47,40.47,175.51,40.39Zm-.17.19v.11h0Zm.55-1,0,0v0Zm.14-.24,0,0h0Zm.6,2.22,0,0a1.37,1.37,0,0,0-.16.18C176.54,41.7,176.57,41.62,176.63,41.55Zm.19-1.86-.15.22C176.79,39.86,176.79,39.86,176.82,39.69Zm.05,1.53v0a.08.08,0,0,0-.08.09v0C176.86,41.3,176.87,41.27,176.87,41.22Zm.06-.06v-.08l-.05,0a.13.13,0,0,0,0,.06S176.93,41.17,176.93,41.16Zm.1-.87a.26.26,0,0,0,0-.11.73.73,0,0,0-.07.16s0,0,0,.09A.27.27,0,0,0,177,40.29Zm1.19-.11v0l-.06,0v0Z"/><path class="cls-3" d="M178.28,42a1.14,1.14,0,0,1-.31-.76l0-.19c0-.1,0-.2,0-.3a8.45,8.45,0,0,1,.51-1.49l.07-.12.06,0,.24.19a.76.76,0,0,1,0,.15,2,2,0,0,1-.07.42c-.08.35-.18.7-.27,1.06a.9.9,0,0,0,0,.4l.14-.1.55-.66a6.47,6.47,0,0,1,1.14-1.14,1.65,1.65,0,0,1,.31-.2.35.35,0,0,1,.18,0,.36.36,0,0,1,.25.13.62.62,0,0,0,.14.14.32.32,0,0,1,.19.33v0a3.19,3.19,0,0,1-.06.54c0,.17-.06.34-.08.51a.61.61,0,0,0,0,.14v.15a.84.84,0,0,0,.18,0,1.6,1.6,0,0,0,.58-.42l.7-.84s.05-.12.12-.12h0l.13.11A.59.59,0,0,1,183,40a8.17,8.17,0,0,1-.77,1.26,1.37,1.37,0,0,1-.48.38.9.9,0,0,1-.25.06.47.47,0,0,1-.36-.19c-.06-.06-.1-.13-.16-.19a.73.73,0,0,1-.17-.44v0c0-.21,0-.41.06-.61a3.73,3.73,0,0,0,.08-.5v0a.5.5,0,0,0-.33.19,5.68,5.68,0,0,0-1,1.1c-.17.24-.32.47-.5.7a1.81,1.81,0,0,1-.29.33.36.36,0,0,1-.26.12A.43.43,0,0,1,178.28,42Zm.66-.63-.2.19c-.05,0-.12.09-.12.17h0C178.85,41.58,178.86,41.57,178.94,41.38Zm-.29-1.69h0Zm.5,1.41a.36.36,0,0,0-.2.26A.29.29,0,0,0,179.15,41.1Zm.2-.28a.34.34,0,0,0-.19.26A.27.27,0,0,0,179.35,40.82Zm.22-.26a.38.38,0,0,0-.21.25C179.5,40.78,179.53,40.66,179.57,40.56Zm.53-.52c-.12,0-.23.08-.24.17ZM182,41l-.17.18C182,41.11,182,41.11,182,41Zm.31-.29v0h-.06v0Zm.23-.37v0a.1.1,0,0,0-.06.09v0A.11.11,0,0,0,182.57,40.35Zm.13-.21-.11.17A.16.16,0,0,0,182.7,40.14Zm.17-.18a.17.17,0,0,0-.15.15C182.8,40.09,182.83,40,182.87,40Z"/><path class="cls-3" d="M185.2,41.93s0-.07-.09-.1a.62.62,0,0,1-.22-.48,1.26,1.26,0,0,1,0-.27,2.69,2.69,0,0,1,.16-.45,6.44,6.44,0,0,1,1.46-1.94,1.18,1.18,0,0,1,.53-.31l.29,0h0a.23.23,0,0,1,.21.11,1.49,1.49,0,0,0,.15.2.3.3,0,0,1,.14.25.43.43,0,0,1,0,.19c0,.09,0,.19-.15.23s-.07-.27-.15-.4a.66.66,0,0,0-.38.14,1.7,1.7,0,0,0-.34.26A5.56,5.56,0,0,0,185.64,41a.34.34,0,0,0-.06.16.13.13,0,0,0,0,.09l.24-.16,1.12-.91a4,4,0,0,1,.39-.3.16.16,0,0,1,.12,0,.13.13,0,0,1,.12.09,1,1,0,0,0,.32.27.62.62,0,0,1,0,.19c0,.12,0,.24,0,.36s0,.36,0,.55a1.16,1.16,0,0,0,0,.18H188a.46.46,0,0,0,.26-.1,3.62,3.62,0,0,0,.42-.36,7.33,7.33,0,0,0,.82-1,.9.9,0,0,1,.25-.3l-.06.24.2-.15a.27.27,0,0,1,0,.08v0a1.89,1.89,0,0,1-.09.21c-.19.34-.38.7-.59,1a4.09,4.09,0,0,1-.49.61,1.07,1.07,0,0,1-.34.25.69.69,0,0,1-.24,0,.62.62,0,0,1-.42-.19,1.26,1.26,0,0,1-.36-.86v0a1.21,1.21,0,0,0,0-.19h-.06c-.06,0-.1.06-.15.1l-1,.89a3.48,3.48,0,0,1-.39.28.57.57,0,0,1-.28.09A.41.41,0,0,1,185.2,41.93Zm0-1-.08,0h0l.08.06Zm.07-.1v0a.78.78,0,0,0-.05.14A.1.1,0,0,0,185.3,40.83Zm.07-.14v0c-.06,0-.06.06-.07.1S185.37,40.73,185.37,40.69Zm.13-.16A8,8,0,0,1,186.66,39a.07.07,0,0,0,0-.06.05.05,0,0,0,0,0l-.19.17a5.67,5.67,0,0,0-.78.92c-.06.08-.09.2-.2.23h-.06v.15h0c0,.08,0,.16-.05.24A.68.68,0,0,0,185.5,40.53Zm.45.92v0l-.09.06h.06A0,0,0,0,0,186,41.45Zm.38-.34v0c0,.09-.13.08-.13.19v0C186.24,41.22,186.33,41.22,186.33,41.11Zm.53-.48-.23.2C186.82,40.76,186.82,40.76,186.86,40.63Zm0-1.83h0a0,0,0,0,0,0,0Zm.47,1.49h0s-.07,0-.07.07v0Zm1.55.84-.38.4A.63.63,0,0,0,188.89,41.13Zm.23-.24a.43.43,0,0,1,0,0s-.08.06-.08.11v0C189.1,41,189.12,40.93,189.12,40.89Zm.26-.41a.82.82,0,0,0-.27.36h0A.6.6,0,0,0,189.38,40.48Zm.13-.21a.22.22,0,0,0-.12.19A.19.19,0,0,0,189.51,40.27Zm.19-.32a.47.47,0,0,0-.18.3A.35.35,0,0,0,189.7,40Z"/><path class="cls-3" d="M190.17,42.1a1.39,1.39,0,0,1-.59-.59,2.12,2.12,0,0,1-.17-.86,5.91,5.91,0,0,1,.12-1.18,16.87,16.87,0,0,1,.82-3l.1-.27a.17.17,0,0,0-.14-.08l-2.46.16a1,1,0,0,1-.27,0v-.22a6.81,6.81,0,0,1,1.4-.28c.2,0,.68-.08,1.43-.14l.31,0c.22-.49.45-1,.69-1.4.05-.12.11-.19.17-.19a.14.14,0,0,1,.09,0c.09.06.15.11.15.14a.16.16,0,0,1,0,.09c-.11.36-.24.73-.38,1.09a.9.9,0,0,0,0,.16h.21l1.17,0c.31,0,.59,0,.83,0a5.6,5.6,0,0,1,.82.15.64.64,0,0,1,.33.16c0,.1,0,.21,0,.33s-.05,0-.08,0l-.05,0a9,9,0,0,0-2-.14c-.32,0-.62,0-.91,0l-.57,0a2.64,2.64,0,0,0-.11.29,15.09,15.09,0,0,0-1,4.68,1.26,1.26,0,0,0,.05.33.44.44,0,0,0,0,.1.42.42,0,0,0,.09.16h.11a.41.41,0,0,0,.3-.11,3,3,0,0,0,.59-.45,10.64,10.64,0,0,0,1-1.26s0,0,0,0a.08.08,0,0,1,0,0s0,0,0,0l.27-.24,0,.16a6.94,6.94,0,0,1-1.23,1.88,1,1,0,0,1-.69.39A.61.61,0,0,1,190.17,42.1Zm-2-6Zm.42-.05h0a.39.39,0,0,0-.15,0,.23.23,0,0,0-.16.08Zm1-.08-.27,0a.8.8,0,0,0-.3.06Zm.59,0a.34.34,0,0,0,.26-.09l-.62,0a.27.27,0,0,0-.23.09Zm-.32,3.79a18.81,18.81,0,0,1,.52-2.18l.43-1.29a.23.23,0,0,0-.13.1c-.34,1-.55,1.61-.63,1.83v.08a.28.28,0,0,1-.09.2.19.19,0,0,1,0,.08.31.31,0,0,1-.08.19,0,0,0,0,0,0,0v0a1.31,1.31,0,0,0-.07.44.21.21,0,0,1-.05.13l0,.06a.45.45,0,0,1,0,.16.36.36,0,0,1-.1.25l.07.36Zm-.14,0h0v.15Zm1.37-4.23,0,0h0Zm.15-.21a2.25,2.25,0,0,1,.08-.24.62.62,0,0,0-.22.43A.38.38,0,0,0,191.2,35.25Zm.2-.52a1.08,1.08,0,0,1,.08-.19.51.51,0,0,0-.19.44Zm1.6,1.05-.47,0a5.88,5.88,0,0,0-1.11.1Zm-1.48-1.42a.17.17,0,0,0,0,.1v0Zm.32,6.34,0,0,0,0,0,0Zm.36-.45a.21.21,0,0,0-.18.1Zm0-.2a.3.3,0,0,0,0,.1s0,.06,0,.09Zm1.56-4.23h-.33l0,0h.32Zm.48.09,0,0h0l0,0Z"/><path class="cls-3" d="M196.47,41.51a.78.78,0,0,0,0-.16h0a.13.13,0,0,0-.1.07,5.37,5.37,0,0,1-.84,1.08.29.29,0,0,1-.19.08.32.32,0,0,1-.21-.09.87.87,0,0,1-.33-.66s0-.11,0-.16c.05-.3.09-.59.16-.88s.19-.86.3-1.28l0,0,.24.14v0c0,.72-.28,1.42-.28,2.14v.05h0a.12.12,0,0,0,.12-.08c.31-.38.58-.77.87-1.14l.23-.27.39.3a.85.85,0,0,1,0,.23c0,.28,0,.14,0,.43s0,.78.24.78a1,1,0,0,0,.37-.13,2.54,2.54,0,0,0,1-1c-.08-.08-.14-.17-.22-.24a.73.73,0,0,1-.27-.56,1.17,1.17,0,0,1,.37-.77.21.21,0,0,1,.13-.07.32.32,0,0,1,.15.06c.46.37.52.4.52,1.12.42-.17.62-.55.91-.85a.3.3,0,0,1,0,.11h.15v0a1.09,1.09,0,0,1-.26.59c-.14.18-.29.35-.44.51a1.1,1.1,0,0,1-.63.25l-.22.39a2.36,2.36,0,0,1-.75.79,1.1,1.1,0,0,1-.56.21C196.94,42.58,196.52,42,196.47,41.51Zm-.76.26c-.09.06-.09.07-.09.17Zm.08-.1v-.06l-.05.13A.07.07,0,0,0,195.79,41.67Zm.27-.41-.13.12C196.05,41.38,196.06,41.33,196.06,41.26Zm.08-.15v0a.81.81,0,0,1-.08.18C196.12,41.25,196.14,41.21,196.14,41.11Zm.22-.22,0,0s0,0,0,0v0Zm2-1,0,0c-.05.06-.11.1-.11.2a.2.2,0,0,0,0,.1A2.57,2.57,0,0,0,198.34,39.86Zm.35.72a1.24,1.24,0,0,0,.11-.46.9.9,0,0,0-.06-.26.86.86,0,0,0-.32.59.22.22,0,0,0,.17.2S198.66,40.62,198.69,40.58Zm-.14.78h0s-.07,0-.08.11A.44.44,0,0,0,198.55,41.36Zm0-.06,0,0a.05.05,0,0,0,0,0l0,0Zm1.21-1h0l0,0A0,0,0,0,1,199.79,40.32Zm.28-.31H200s0,0,0,.07Zm0-.18a.11.11,0,0,0,0,.08.15.15,0,0,0,0,.09C200.08,39.94,200.09,39.88,200.09,39.83Z"/><path class="cls-3" d="M199.47,41.36a1.8,1.8,0,0,1,0-.22,4.42,4.42,0,0,1,.84-1.92.56.56,0,0,1,.16-.13,1.71,1.71,0,0,0,.25.18l0,.1a6,6,0,0,0-.59,1.28,3,3,0,0,0-.17.9c0,.08,0,.17,0,.28a1.57,1.57,0,0,0,.24,0,2.31,2.31,0,0,0,1-.94l-.2-.26a.84.84,0,0,1-.15-.49.9.9,0,0,1,.33-.7.16.16,0,0,1,.12,0,.22.22,0,0,1,.13.06c.15.12.37.26.4.47a4,4,0,0,1,0,.59.91.91,0,0,0,.46-.32,5.24,5.24,0,0,0,.39-.41l0,.16.14,0,0,0a2.58,2.58,0,0,1-.47.82.82.82,0,0,1-.67.36c-.18,0-.17.08-.3.29-.28.45-.82,1-1.26,1S199.47,41.88,199.47,41.36Zm.48-1,.37-.76c-.09,0-.13.06-.16.13l-.38.82C199.89,40.56,199.92,40.47,200,40.39Zm-.17.19v.11h0Zm.56-1,0,0v0Zm.13-.24v0h0Zm.6,2.22,0,0a1.37,1.37,0,0,0-.16.18C201,41.7,201,41.62,201.07,41.55Zm.19-1.86-.14.22C201.24,39.86,201.24,39.86,201.26,39.69Zm.06,1.53v0c-.06,0-.08,0-.08.09v0C201.31,41.3,201.32,41.27,201.32,41.22Zm.06-.06v-.08s0,0,0,0a.13.13,0,0,0,0,.06S201.38,41.17,201.38,41.16Zm.1-.87a.26.26,0,0,0,0-.11.42.42,0,0,0-.07.16s0,0,.05.09A.27.27,0,0,0,201.48,40.29Zm1.18-.11v0l-.06,0v0Z"/><path class="cls-3" d="M202.81,42.07l-.12-.1-.13-.12a.45.45,0,0,1-.19-.36,2.51,2.51,0,0,1,.1-.62,9.43,9.43,0,0,1,.52-1.74v0a.83.83,0,0,1,.19-.34l.32.19a.68.68,0,0,1,0,.14.69.69,0,0,1,0,.22h0l-.16.71v0a.44.44,0,0,0,0,.1.27.27,0,0,0,.05.13l0-.06a3.62,3.62,0,0,1,.83-.79.92.92,0,0,1,.27-.16l.07,0a.6.6,0,0,0,.15.09l.3.19a.64.64,0,0,1,.11.2l0,.27v.38l.08,0,.12,0,.21.11a.25.25,0,0,1-.12.19.32.32,0,0,1-.2.07.21.21,0,0,1-.17-.08.82.82,0,0,1-.39-.61.41.41,0,0,0-.05-.17.11.11,0,0,0,0-.05l-.05,0a.29.29,0,0,0-.1.07,3.09,3.09,0,0,0-.6.66,7.48,7.48,0,0,0-.41.65c-.12.2-.23.43-.36.69s-.12.16-.19.16A.19.19,0,0,1,202.81,42.07Zm0-1.75a.24.24,0,0,1-.08.19s0,.06,0,.1a.25.25,0,0,1-.08.17l.07.2c.06-.17.12-.39.19-.64s.13-.49.19-.71a3,3,0,0,0,.09-.47l-.05.06,0,.06c-.05.2-.1.34-.12.42a1.55,1.55,0,0,1,0,.15s0,.09-.05.14-.06.14-.1.24Zm.42.63a.06.06,0,0,0-.06.06.1.1,0,0,0,0,.07Zm.13-.21a.21.21,0,0,0-.12.19A.2.2,0,0,0,203.37,40.74Zm.1-.09,0,0s0,0,0,0a.11.11,0,0,0,0,.06Zm.21-.28v0h-.05v0Z"/><path class="cls-3" d="M205.67,42.45a.4.4,0,0,1-.16-.32,2.6,2.6,0,0,1,0-.4,13.2,13.2,0,0,1,.3-2.22A15.63,15.63,0,0,1,207,35.89a8.25,8.25,0,0,1,1.39-2.1,2.09,2.09,0,0,1,1-.66l.17,0a.39.39,0,0,1,.34.19.34.34,0,0,0,.12.12.48.48,0,0,1,.2.38,4.51,4.51,0,0,1-.73,2,7.59,7.59,0,0,1-2.52,2.78,7,7,0,0,0-.41,1.32,3.89,3.89,0,0,0-.1.55.11.11,0,0,0,.09,0l0,0a.11.11,0,0,0,0-.05,3.8,3.8,0,0,1,1.66-1.49.27.27,0,0,1,.12,0,.33.33,0,0,1,.22.1l.16.08a.22.22,0,0,1,.14.12,1.09,1.09,0,0,1,0,.22.82.82,0,0,1-.08.35,2.36,2.36,0,0,1-1,1.2l-.08.07a1.79,1.79,0,0,0,.36.43.4.4,0,0,0,.28.13,1.2,1.2,0,0,0,.5-.14,2.27,2.27,0,0,0,.86-.71l.51-.79-.12.45.31-.55a.2.2,0,0,1,0,.08.41.41,0,0,1,0,.12,4.28,4.28,0,0,1-.93,1.69,1,1,0,0,1-.73.34.8.8,0,0,1-.38-.1,2.26,2.26,0,0,1-1.17-1.24,1.09,1.09,0,0,0,.4-.25,3,3,0,0,0,.69-1.09.15.15,0,0,0-.08-.05.29.29,0,0,0-.16.08,5.15,5.15,0,0,0-1.6,1.75,3,3,0,0,1-.21.33,1.54,1.54,0,0,0-.23.85v.35A.72.72,0,0,1,205.67,42.45Zm.2-1.45a19.72,19.72,0,0,1,1.23-4.35,9.09,9.09,0,0,1,1.2-2.18c.19-.26.3-.39.3-.39a.08.08,0,0,0,0,0l-.05-.06a7.41,7.41,0,0,0-1,1.37c-.14.27-.39.75-.72,1.44a1.06,1.06,0,0,1-.24.58l.07-.2,0,0-.08.06.06.11s0,0,0,0a.13.13,0,0,1,0,.06l-.24.68q-.39,1.51-.45,1.62v.08a.42.42,0,0,0-.07.39.35.35,0,0,1-.09.23.68.68,0,0,1,0,.14.46.46,0,0,1-.09.27.68.68,0,0,1,0,.14.41.41,0,0,1-.09.26l.05.47C205.78,41.49,205.83,41.25,205.87,41Zm-.17.13,0,0v.14Zm.05-.43h0v0Zm.07-.41h0v.16C205.81,40.4,205.82,40.35,205.82,40.29Zm.07-.34h0l0,.16C205.88,40.05,205.89,40,205.89,40Zm.07-.29h0v0Zm.07-.41h0v0Zm.06-.27h0v0h0Zm.07-.26v0a0,0,0,0,0,0,0l0,0Zm.06-.26v0h0Zm.18-.33-.05-.07,0,.07Zm0-.36v0h0Zm.08-.19h0v0Zm.07-.31Zm.13-.12h0Zm0,3.14h0Zm.16-3.92h0A0,0,0,0,0,206.9,36.37Zm.24,1.67a2.52,2.52,0,0,0,.34-.32A18.53,18.53,0,0,0,208.85,36a5.9,5.9,0,0,0,.92-2.13.19.19,0,0,0,0-.08.11.11,0,0,1,0-.05h-.15l-.15.1a2.85,2.85,0,0,0-.6.55,11.74,11.74,0,0,0-1.76,3.5.52.52,0,0,1,0,.11.36.36,0,0,1,0,.11Zm0-2.15h0l0,0Zm.88,1.52h0v0Zm.25,2.6v0l-.06.11C208.21,40.07,208.23,40,208.23,40Zm0-2.95h-.05v0Zm.19,2.61a.34.34,0,0,1,.06-.12.29.29,0,0,0,.06-.19.44.44,0,0,0,0-.1l-.32.69A.55.55,0,0,0,208.46,39.67Zm.22-3.21v0h0Zm.15-.18h0v0Zm.15-2.59v0a.11.11,0,0,0-.08,0l-.07.08,0,0Zm.11,2.31H209s0,0,0,.06Zm0-.2a.41.41,0,0,0,0,.18Zm.09-.06.05-.05.06,0a.17.17,0,0,0-.12,0l-.06.08h0Zm.13-.28a.18.18,0,0,0,0,.09.16.16,0,0,0,0,.09Zm.07-.14,0,.11A.13.13,0,0,0,209.39,35.32Zm.07-.14a.43.43,0,0,0-.05.12S209.46,35.24,209.46,35.18Zm.07-.12-.06.09A.08.08,0,0,0,209.53,35.06Zm.25-.44a.45.45,0,0,0-.24.41A1.27,1.27,0,0,0,209.78,34.62Zm.08-.21,0,0v0a.14.14,0,0,0-.08.12s0,0,0,.08Z"/></g></g></svg>