<svg xmlns="http://www.w3.org/2000/svg" viewBox="0 0 915.52 428.1"><defs><style>.cls-1,.cls-5{fill:#b0c3c2;}.cls-2{fill:#7597c1;}.cls-3{fill:#bbbddb;}.cls-4{fill:#89a4ca;}.cls-5,.cls-8{opacity:0.29;}.cls-6{fill:#8caaa7;}.cls-7,.cls-8{fill:#558280;}</style></defs><title>building</title><g id="Layer_2" data-name="Layer 2"><g id="Layer_1-2" data-name="Layer 1"><polygon class="cls-1" points="500.8 54.03 499.31 39.47 491.69 39.47 490.19 54.03 500.8 54.03"/><polygon class="cls-2" points="498.18 62.08 497.11 33.88 493.87 33.88 492.79 62.08 498.18 62.08"/><polygon class="cls-1" points="493.32 43 493.24 44.67 497.73 44.67 497.66 43 493.32 43"/><polygon class="cls-1" points="493.32 39.87 493.24 41.53 497.73 41.53 497.66 39.87 493.32 39.87"/><polygon class="cls-1" points="497.32 39.48 497.11 33.88 493.87 33.88 493.66 39.48 497.32 39.48"/><polygon class="cls-1" points="493.16 45.97 493.07 47.87 497.9 47.87 497.82 45.97 493.16 45.97"/><polygon class="cls-1" points="493.01 48.99 492.93 50.75 498.05 50.75 497.97 48.99 493.01 48.99"/><rect class="cls-1" x="494.52" y="39.47" width="1.9" height="14.57"/><polygon class="cls-1" points="497.31 39.47 497.11 33.88 493.87 33.88 493.67 39.47 497.31 39.47"/><polygon class="cls-2" points="511.66 146.69 504.39 51.8 486.46 51.8 479.2 146.69 511.66 146.69"/><polygon class="cls-1" points="504.65 55.16 504.39 51.8 486.46 51.8 486.2 55.16 504.65 55.16"/><polygon class="cls-1" points="485.96 58.33 485.69 61.85 505.16 61.85 504.89 58.33 485.96 58.33"/><polygon class="cls-1" points="485.44 65.14 485.21 68.2 505.65 68.2 505.42 65.14 485.44 65.14"/><polygon class="cls-1" points="506.32 78.69 506.04 75.03 484.82 75.03 484.54 78.69 506.32 78.69"/><polygon class="cls-1" points="506.32 72.16 506.04 68.5 484.82 68.5 484.54 72.16 506.32 72.16"/><polygon class="cls-1" points="484.31 81.75 484.01 85.67 506.85 85.67 506.56 81.75 484.31 81.75"/><polygon class="cls-1" points="483.7 88.84 483.44 92.24 507.43 92.24 507.16 88.84 483.7 88.84"/><rect class="cls-1" x="491.7" y="51.8" width="2.26" height="16.45"/><rect class="cls-1" x="496.93" y="51.8" width="2.27" height="16.45"/><polygon class="cls-1" points="490.24 68.3 490.24 51.8 486.46 51.8 485.2 68.3 490.24 68.3"/><polygon class="cls-1" points="500.62 68.3 500.62 51.8 504.39 51.8 505.65 68.3 500.62 68.3"/><polygon class="cls-1" points="497.56 68.2 497.56 100.6 492.9 100.6 492.9 68.2 489.57 68.2 489.57 102.26 501.28 102.26 501.28 68.2 497.56 68.2"/><polygon class="cls-1" points="486.38 115.65 486.38 68.2 480.91 68.2 480.3 159.47 510.56 159.47 510.27 115.65 486.38 115.65"/><polygon class="cls-1" points="504.48 115.65 504.48 68.2 509.95 68.2 510.56 159.47 480.3 159.47 480.59 115.65 504.48 115.65"/><polygon class="cls-2" points="513.98 169.58 513.28 95.34 477.58 95.34 476.88 169.58 513.98 169.58"/><polygon class="cls-1" points="513.32 100.05 513.28 95.34 477.58 95.34 477.54 100.05 513.32 100.05"/><polygon class="cls-1" points="477.5 104.39 477.46 108.38 513.4 108.38 513.36 104.39 477.5 104.39"/><polygon class="cls-1" points="477.42 112.19 477.38 116.19 513.48 116.19 513.44 112.19 477.42 112.19"/><polygon class="cls-1" points="477.35 120.21 477.3 125.18 513.56 125.18 513.51 120.21 477.35 120.21"/><polygon class="cls-1" points="498.76 95.34 498.76 135.39 491.57 135.39 491.57 95.34 487.95 95.34 487.95 169.58 503.01 169.58 503.01 95.34 498.76 95.34"/><polygon class="cls-1" points="484.26 95.34 477.58 95.34 477.06 150.95 484.26 150.95 484.26 95.34"/><polygon class="cls-1" points="506.58 95.44 513.26 95.44 513.78 151.05 506.58 151.05 506.58 95.44"/><polygon class="cls-2" points="517.89 129.93 495.43 129.93 472.98 129.93 470.77 280.8 495.43 280.8 520.09 280.8 517.89 129.93"/><polygon class="cls-1" points="472.83 140.18 472.74 146.3 518.13 146.3 518.03 140.18 472.83 140.18"/><polygon class="cls-1" points="517.96 135.12 517.89 129.93 472.98 129.93 472.9 135.12 517.96 135.12"/><polygon class="cls-1" points="472.67 150.55 472.59 156.28 518.27 156.28 518.19 150.55 472.67 150.55"/><polygon class="cls-1" points="472.52 160.93 472.43 167.32 518.43 167.32 518.34 160.93 472.52 160.93"/><polygon class="cls-1" points="472.35 172.77 472.26 178.63 518.6 178.63 518.51 172.77 472.35 172.77"/><rect class="cls-1" x="487.24" y="129.93" width="5.18" height="74.95"/><polygon class="cls-1" points="481.86 215.08 481.86 129.93 472.98 129.93 471.73 215.08 481.86 215.08"/><rect class="cls-1" x="498.27" y="129.93" width="5.38" height="74.95"/><polygon class="cls-1" points="509.02 215.08 509.02 129.93 517.91 129.93 519.15 215.08 509.02 215.08"/><polygon class="cls-2" points="522.57 183.95 495.43 183.95 468.29 183.95 465.63 410.64 495.43 410.64 525.23 410.64 522.57 183.95"/><polygon class="cls-1" points="522.66 191.75 522.57 183.95 468.29 183.95 468.2 191.75 522.66 191.75"/><polygon class="cls-1" points="468.12 198.49 468.01 207.72 522.85 207.72 522.74 198.49 468.12 198.49"/><polygon class="cls-1" points="467.93 214.81 467.83 222.79 523.02 222.79 522.93 214.81 467.93 214.81"/><polygon class="cls-1" points="467.75 230.07 467.64 239.12 523.22 239.12 523.11 230.07 467.75 230.07"/><polygon class="cls-1" points="467.57 245.5 467.47 254.19 523.39 254.19 523.29 245.5 467.57 245.5"/><polygon class="cls-1" points="467.38 261.46 467.27 270.51 523.59 270.51 523.48 261.46 467.38 261.46"/><polygon class="cls-1" points="467.2 276.72 467.11 284.35 523.75 284.35 523.66 276.72 467.2 276.72"/><polygon class="cls-1" points="467.04 290.91 466.94 298.72 523.92 298.72 523.83 290.91 467.04 290.91"/><polygon class="cls-1" points="466.87 304.93 466.78 312.73 524.08 312.73 523.99 304.93 466.87 304.93"/><polygon class="cls-1" points="466.71 318.94 466.62 326.21 524.24 326.21 524.15 318.94 466.71 318.94"/><polygon class="cls-1" points="466.54 332.77 466.45 340.67 524.41 340.67 524.32 332.77 466.54 332.77"/><polygon class="cls-1" points="466.39 346.12 466.31 353.17 524.56 353.17 524.47 346.12 466.39 346.12"/><polygon class="cls-1" points="466.24 358.63 466.15 365.94 524.71 365.94 524.62 358.63 466.24 358.63"/><polygon class="cls-1" points="466.08 371.93 466 378.72 524.86 378.72 524.78 371.93 466.08 371.93"/><polygon class="cls-1" points="465.93 384.71 465.86 391.13 525 391.13 524.92 384.71 465.93 384.71"/><polygon class="cls-1" points="465.8 396.28 465.73 402.13 525.13 402.13 525.06 396.28 465.8 396.28"/><rect class="cls-1" x="484.26" y="183.95" width="6.92" height="226.69"/><polygon class="cls-1" points="468.29 183.95 465.63 410.64 477.79 410.64 477.79 183.95 468.29 183.95"/><rect class="cls-1" x="499.42" y="183.95" width="7.18" height="226.69"/><polygon class="cls-1" points="522.57 183.95 525.23 410.64 513.07 410.64 513.07 183.95 522.57 183.95"/><rect class="cls-1" x="494.63" y="2.13" width="1.6" height="30.96"/><circle class="cls-1" cx="495.43" cy="1.73" r="1.73"/><path class="cls-2" d="M498.18,32.9a2.75,2.75,0,1,1-2.75-2.75A2.75,2.75,0,0,1,498.18,32.9Z"/><polygon class="cls-3" points="522.62 188.03 522.57 183.95 468.29 183.95 468.24 188.03 522.62 188.03"/><polygon class="cls-3" points="517.93 133.13 517.89 129.93 472.98 129.93 472.93 133.13 517.93 133.13"/><polygon class="cls-3" points="513.31 98.45 513.28 95.34 477.58 95.34 477.55 98.45 513.31 98.45"/><polygon class="cls-3" points="480.86 70.73 509.97 70.73 509.92 68.24 480.94 68.24 480.86 70.73"/><polygon class="cls-3" points="504.54 53.66 504.39 51.8 486.46 51.8 486.32 53.66 504.54 53.66"/><polygon class="cls-3" points="499.39 40.26 499.31 39.47 491.69 39.47 491.6 40.26 499.39 40.26"/><polygon class="cls-1" points="606.89 54.03 608.38 39.47 616 39.47 617.49 54.03 606.89 54.03"/><polygon class="cls-2" points="609.5 62.08 610.58 33.88 613.81 33.88 614.89 62.08 609.5 62.08"/><polygon class="cls-1" points="614.36 43 614.44 44.67 609.95 44.67 610.02 43 614.36 43"/><polygon class="cls-1" points="614.36 39.87 614.44 41.53 609.95 41.53 610.02 39.87 614.36 39.87"/><polygon class="cls-1" points="610.37 39.48 610.58 33.88 613.81 33.88 614.03 39.48 610.37 39.48"/><polygon class="cls-1" points="614.53 45.97 614.61 47.87 609.78 47.87 609.87 45.97 614.53 45.97"/><polygon class="cls-1" points="614.68 48.99 614.76 50.75 609.64 50.75 609.71 48.99 614.68 48.99"/><rect class="cls-1" x="611.26" y="39.47" width="1.9" height="14.57"/><polygon class="cls-1" points="610.37 39.47 610.58 33.88 613.81 33.88 614.02 39.47 610.37 39.47"/><polygon class="cls-2" points="596.02 146.69 603.29 51.8 621.22 51.8 628.49 146.69 596.02 146.69"/><polygon class="cls-1" points="603.03 55.16 603.29 51.8 621.22 51.8 621.48 55.16 603.03 55.16"/><polygon class="cls-1" points="621.72 58.33 621.99 61.85 602.52 61.85 602.79 58.33 621.72 58.33"/><polygon class="cls-1" points="622.24 65.14 622.48 68.2 602.03 68.2 602.26 65.14 622.24 65.14"/><polygon class="cls-1" points="601.36 78.69 601.64 75.03 622.86 75.03 623.14 78.69 601.36 78.69"/><polygon class="cls-1" points="601.36 72.16 601.64 68.5 622.86 68.5 623.14 72.16 601.36 72.16"/><polygon class="cls-1" points="623.38 81.75 623.68 85.67 600.83 85.67 601.13 81.75 623.38 81.75"/><polygon class="cls-1" points="623.99 88.84 624.25 92.24 600.26 92.24 600.52 88.84 623.99 88.84"/><rect class="cls-1" x="613.72" y="51.8" width="2.27" height="16.45"/><rect class="cls-1" x="608.48" y="51.8" width="2.27" height="16.45"/><polygon class="cls-1" points="617.44 68.3 617.44 51.8 621.22 51.8 622.48 68.3 617.44 68.3"/><polygon class="cls-1" points="607.07 68.3 607.07 51.8 603.29 51.8 602.03 68.3 607.07 68.3"/><polygon class="cls-1" points="610.13 68.2 610.13 100.6 614.78 100.6 614.78 68.2 618.11 68.2 618.11 102.26 606.4 102.26 606.4 68.2 610.13 68.2"/><polygon class="cls-1" points="621.3 115.65 621.3 68.2 626.77 68.2 627.39 159.47 597.12 159.47 597.41 115.65 621.3 115.65"/><polygon class="cls-1" points="603.21 115.65 603.21 68.2 597.73 68.2 597.12 159.47 627.39 159.47 627.1 115.65 603.21 115.65"/><polygon class="cls-2" points="593.7 169.58 594.4 95.34 630.1 95.34 630.81 169.58 593.7 169.58"/><polygon class="cls-1" points="594.36 100.05 594.4 95.34 630.1 95.34 630.14 100.05 594.36 100.05"/><polygon class="cls-1" points="630.18 104.39 630.22 108.38 594.29 108.38 594.33 104.39 630.18 104.39"/><polygon class="cls-1" points="630.26 112.19 630.3 116.19 594.21 116.19 594.25 112.19 630.26 112.19"/><polygon class="cls-1" points="630.34 120.21 630.38 125.18 594.12 125.18 594.17 120.21 630.34 120.21"/><polygon class="cls-1" points="608.93 95.34 608.93 135.39 616.11 135.39 616.11 95.34 619.73 95.34 619.73 169.58 604.67 169.58 604.67 95.34 608.93 95.34"/><polygon class="cls-1" points="623.43 95.34 630.1 95.34 630.63 150.95 623.43 150.95 623.43 95.34"/><polygon class="cls-1" points="601.1 95.44 594.42 95.44 593.9 151.05 601.1 151.05 601.1 95.44"/><polygon class="cls-2" points="589.8 129.93 612.25 129.93 634.71 129.93 636.91 280.8 612.25 280.8 587.6 280.8 589.8 129.93"/><polygon class="cls-1" points="634.86 140.18 634.95 146.3 589.56 146.3 589.65 140.18 634.86 140.18"/><polygon class="cls-1" points="589.72 135.12 589.8 129.93 634.71 129.93 634.79 135.12 589.72 135.12"/><polygon class="cls-1" points="635.01 150.55 635.09 156.28 589.42 156.28 589.5 150.55 635.01 150.55"/><polygon class="cls-1" points="635.16 160.93 635.25 167.32 589.25 167.32 589.35 160.93 635.16 160.93"/><polygon class="cls-1" points="635.34 172.77 635.42 178.63 589.09 178.63 589.17 172.77 635.34 172.77"/><rect class="cls-1" x="615.27" y="129.93" width="5.18" height="74.95"/><polygon class="cls-1" points="625.83 215.08 625.83 129.93 634.71 129.93 635.95 215.08 625.83 215.08"/><rect class="cls-1" x="604.03" y="129.93" width="5.38" height="74.95"/><polygon class="cls-1" points="598.66 215.08 598.66 129.93 589.78 129.93 588.53 215.08 598.66 215.08"/><polygon class="cls-2" points="585.12 183.95 612.25 183.95 639.39 183.95 642.05 410.64 612.25 410.64 582.45 410.64 585.12 183.95"/><polygon class="cls-1" points="585.02 191.75 585.12 183.95 639.39 183.95 639.49 191.75 585.02 191.75"/><polygon class="cls-1" points="639.57 198.49 639.67 207.72 584.84 207.72 584.95 198.49 639.57 198.49"/><polygon class="cls-1" points="639.76 214.81 639.85 222.79 584.66 222.79 584.75 214.81 639.76 214.81"/><polygon class="cls-1" points="639.93 230.07 640.04 239.12 584.47 239.12 584.58 230.07 639.93 230.07"/><polygon class="cls-1" points="640.12 245.5 640.22 254.19 584.29 254.19 584.39 245.5 640.12 245.5"/><polygon class="cls-1" points="640.3 261.46 640.41 270.51 584.1 270.51 584.21 261.46 640.3 261.46"/><polygon class="cls-1" points="640.48 276.72 640.57 284.35 583.94 284.35 584.03 276.72 640.48 276.72"/><polygon class="cls-1" points="640.65 290.91 640.74 298.72 583.77 298.72 583.86 290.91 640.65 290.91"/><polygon class="cls-1" points="640.81 304.93 640.91 312.73 583.6 312.73 583.69 304.93 640.81 304.93"/><polygon class="cls-1" points="640.98 318.94 641.06 326.21 583.45 326.21 583.53 318.94 640.98 318.94"/><polygon class="cls-1" points="641.14 332.77 641.24 340.67 583.27 340.67 583.37 332.77 641.14 332.77"/><polygon class="cls-1" points="641.3 346.12 641.38 353.17 583.13 353.17 583.21 346.12 641.3 346.12"/><polygon class="cls-1" points="641.44 358.63 641.53 365.94 582.98 365.94 583.06 358.63 641.44 358.63"/><polygon class="cls-1" points="641.6 371.93 641.68 378.72 582.83 378.72 582.91 371.93 641.6 371.93"/><polygon class="cls-1" points="641.75 384.71 641.83 391.13 582.68 391.13 582.76 384.71 641.75 384.71"/><polygon class="cls-1" points="641.89 396.28 641.96 402.13 582.55 402.13 582.62 396.28 641.89 396.28"/><rect class="cls-1" x="616.51" y="183.95" width="6.92" height="226.69"/><polygon class="cls-1" points="639.39 183.95 642.05 410.64 629.9 410.64 629.9 183.95 639.39 183.95"/><rect class="cls-1" x="601.08" y="183.95" width="7.18" height="226.69"/><polygon class="cls-1" points="585.12 183.95 582.45 410.64 594.61 410.64 594.61 183.95 585.12 183.95"/><rect class="cls-1" x="611.46" y="2.13" width="1.6" height="30.96"/><circle class="cls-1" cx="612.25" cy="1.73" r="1.73"/><path class="cls-2" d="M609.51,32.9a2.75,2.75,0,1,0,2.74-2.75A2.75,2.75,0,0,0,609.51,32.9Z"/><polygon class="cls-3" points="585.07 188.03 585.12 183.95 639.39 183.95 639.44 188.03 585.07 188.03"/><polygon class="cls-3" points="589.75 133.13 589.8 129.93 634.71 129.93 634.75 133.13 589.75 133.13"/><polygon class="cls-3" points="594.37 98.45 594.4 95.34 630.1 95.34 630.13 98.45 594.37 98.45"/><polygon class="cls-3" points="626.82 70.73 597.71 70.73 597.76 68.24 626.74 68.24 626.82 70.73"/><polygon class="cls-3" points="603.15 53.66 603.29 51.8 621.22 51.8 621.36 53.66 603.15 53.66"/><polygon class="cls-3" points="608.29 40.26 608.38 39.47 616 39.47 616.08 40.26 608.29 40.26"/><rect class="cls-1" x="520.57" y="251.26" width="66.52" height="15.39"/><path class="cls-4" d="M521.63,251.26v15.39H586V251.26Zm60.27,12.33H525.75v-9.26H581.9Z"/><rect class="cls-4" x="527.95" y="255.53" width="5.06" height="2.57"/><rect class="cls-4" x="527.95" y="259.76" width="5.06" height="2.57"/><rect class="cls-4" x="535.53" y="255.53" width="5.06" height="2.57"/><rect class="cls-4" x="535.53" y="259.76" width="5.06" height="2.57"/><rect class="cls-4" x="543.11" y="255.53" width="5.06" height="2.57"/><rect class="cls-4" x="543.11" y="259.76" width="5.06" height="2.57"/><rect class="cls-4" x="559.48" y="255.53" width="5.06" height="2.57"/><rect class="cls-4" x="559.48" y="259.76" width="5.06" height="2.57"/><rect class="cls-4" x="567.06" y="255.53" width="5.06" height="2.57"/><rect class="cls-4" x="567.06" y="259.76" width="5.06" height="2.57"/><rect class="cls-4" x="574.65" y="255.53" width="5.06" height="2.57"/><rect class="cls-4" x="574.65" y="259.76" width="5.06" height="2.57"/><rect class="cls-4" x="552.61" y="255.19" width="2.43" height="3.26"/><rect class="cls-4" x="552.61" y="259.42" width="2.43" height="3.26"/><rect class="cls-4" x="577.04" y="311.27" width="7.43" height="10.29"/><polygon class="cls-4" points="580.67 312.6 556.87 265.5 553.32 265.5 553.3 265.51 577.1 312.6 580.67 312.6"/><rect class="cls-4" x="523.18" y="311.27" width="7.43" height="10.29"/><polygon class="cls-4" points="526.98 312.6 550.77 265.5 554.33 265.5 554.35 265.51 530.55 312.6 526.98 312.6"/><rect class="cls-1" x="250.09" y="218.64" width="40.4" height="160.8"/><rect class="cls-1" x="256.69" y="207.11" width="27.2" height="67.58"/><rect class="cls-1" x="262.74" y="199.8" width="15.09" height="37.48"/><polygon class="cls-1" points="275.43 219.06 265.14 219.06 265.14 193.51 268.85 193.51 272.53 193.51 275.43 193.51 275.43 219.06"/><polygon class="cls-1" points="269.61 207.93 268.49 207.93 268.49 182.39 268.89 182.39 269.29 182.39 269.61 182.39 269.61 207.93"/><polygon class="cls-1" points="272.08 199.1 270.96 199.1 270.96 173.56 271.36 173.56 271.76 173.56 272.08 173.56 272.08 199.1"/><rect class="cls-1" x="249.01" y="218.23" width="42.55" height="1.71"/><rect class="cls-1" x="255.69" y="206.29" width="29.18" height="1.65"/><rect class="cls-1" x="261.64" y="199.1" width="16.82" height="1.26"/><rect class="cls-5" x="259.19" y="209.85" width="1.26" height="7.08"/><rect class="cls-5" x="262.69" y="209.85" width="1.26" height="7.08"/><rect class="cls-5" x="266.18" y="209.85" width="1.26" height="7.08"/><rect class="cls-5" x="269.68" y="209.85" width="1.26" height="7.08"/><rect class="cls-5" x="273.18" y="209.85" width="1.26" height="7.08"/><rect class="cls-5" x="276.68" y="209.85" width="1.26" height="7.08"/><rect class="cls-5" x="280.18" y="209.85" width="1.26" height="7.08"/><rect class="cls-1" x="253.63" y="225.05" width="3.06" height="8.4"/><rect class="cls-5" x="259.68" y="225.05" width="3.06" height="8.4"/><rect class="cls-1" x="265.73" y="225.05" width="3.06" height="8.4"/><rect class="cls-1" x="271.78" y="225.05" width="3.06" height="8.4"/><rect class="cls-1" x="277.83" y="225.05" width="3.05" height="8.4"/><rect class="cls-1" x="283.88" y="225.05" width="3.05" height="8.4"/><rect class="cls-1" x="253.63" y="238.14" width="3.06" height="8.4"/><rect class="cls-1" x="259.68" y="238.14" width="3.06" height="8.4"/><rect class="cls-1" x="265.73" y="238.14" width="3.06" height="8.4"/><rect class="cls-5" x="271.78" y="238.14" width="3.06" height="8.4"/><rect class="cls-1" x="277.83" y="238.14" width="3.05" height="8.4"/><rect class="cls-1" x="283.88" y="238.14" width="3.05" height="8.4"/><rect class="cls-1" x="253.63" y="251.24" width="3.06" height="8.4"/><rect class="cls-1" x="259.68" y="251.24" width="3.06" height="8.4"/><rect class="cls-1" x="265.73" y="251.24" width="3.06" height="8.4"/><rect class="cls-1" x="271.78" y="251.24" width="3.06" height="8.4"/><rect class="cls-5" x="277.83" y="251.24" width="3.05" height="8.4"/><rect class="cls-5" x="283.88" y="251.24" width="3.05" height="8.4"/><rect class="cls-5" x="253.63" y="264.33" width="3.06" height="8.4"/><rect class="cls-1" x="259.68" y="264.33" width="3.06" height="8.4"/><rect class="cls-1" x="265.73" y="264.33" width="3.06" height="8.4"/><rect class="cls-1" x="271.78" y="264.33" width="3.06" height="8.4"/><rect class="cls-1" x="277.83" y="264.33" width="3.05" height="8.4"/><rect class="cls-1" x="283.88" y="264.33" width="3.05" height="8.4"/><rect class="cls-1" x="253.63" y="277.43" width="3.06" height="8.4"/><rect class="cls-5" x="259.68" y="277.43" width="3.06" height="8.4"/><rect class="cls-1" x="265.73" y="277.43" width="3.06" height="8.4"/><rect class="cls-5" x="271.78" y="277.43" width="3.06" height="8.4"/><rect class="cls-1" x="277.83" y="277.43" width="3.05" height="8.4"/><rect class="cls-1" x="283.88" y="277.43" width="3.05" height="8.4"/><rect class="cls-1" x="253.63" y="290.52" width="3.06" height="8.4"/><rect class="cls-1" x="259.68" y="290.52" width="3.06" height="8.4"/><rect class="cls-1" x="265.73" y="290.52" width="3.06" height="8.4"/><rect class="cls-1" x="271.78" y="290.52" width="3.06" height="8.4"/><rect class="cls-1" x="277.83" y="290.52" width="3.05" height="8.4"/><rect class="cls-5" x="283.88" y="290.52" width="3.05" height="8.4"/><rect class="cls-1" x="253.63" y="303.62" width="3.06" height="8.4"/><rect class="cls-5" x="259.68" y="303.62" width="3.06" height="8.4"/><rect class="cls-5" x="265.73" y="303.62" width="3.06" height="8.4"/><rect class="cls-1" x="271.78" y="303.62" width="3.06" height="8.4"/><rect class="cls-1" x="277.83" y="303.62" width="3.05" height="8.4"/><rect class="cls-1" x="283.88" y="303.62" width="3.05" height="8.4"/><rect class="cls-1" x="253.63" y="316.71" width="3.06" height="8.4"/><rect class="cls-1" x="259.68" y="316.71" width="3.06" height="8.4"/><rect class="cls-1" x="265.73" y="316.71" width="3.06" height="8.4"/><rect class="cls-1" x="271.78" y="316.71" width="3.06" height="8.4"/><rect class="cls-5" x="277.83" y="316.71" width="3.05" height="8.4"/><rect class="cls-1" x="283.88" y="316.71" width="3.05" height="8.4"/><rect class="cls-1" x="253.63" y="329.81" width="3.06" height="8.4"/><rect class="cls-5" x="259.68" y="329.81" width="3.06" height="8.4"/><rect class="cls-1" x="265.73" y="329.81" width="3.06" height="8.4"/><rect class="cls-1" x="271.78" y="329.81" width="3.06" height="8.4"/><rect class="cls-1" x="277.83" y="329.81" width="3.05" height="8.4"/><rect class="cls-1" x="283.88" y="329.81" width="3.05" height="8.4"/><rect class="cls-1" x="253.63" y="342.9" width="3.06" height="8.4"/><rect class="cls-1" x="259.68" y="342.9" width="3.06" height="8.4"/><rect class="cls-1" x="265.73" y="342.9" width="3.06" height="8.4"/><rect class="cls-5" x="271.78" y="342.9" width="3.06" height="8.4"/><rect class="cls-1" x="277.83" y="342.9" width="3.05" height="8.4"/><rect class="cls-5" x="283.88" y="342.9" width="3.05" height="8.4"/><rect class="cls-5" x="253.63" y="356" width="3.06" height="8.4"/><rect class="cls-1" x="259.68" y="356" width="3.06" height="8.4"/><rect class="cls-5" x="265.73" y="356" width="3.06" height="8.4"/><rect class="cls-1" x="271.78" y="356" width="3.06" height="8.4"/><rect class="cls-1" x="277.83" y="356" width="3.05" height="8.4"/><rect class="cls-1" x="283.88" y="356" width="3.05" height="8.4"/><rect class="cls-1" x="132.76" y="224.75" width="64.94" height="135.46"/><rect class="cls-1" x="130.91" y="222.43" width="68.63" height="3.83"/><rect class="cls-1" x="134.94" y="217.52" width="60.58" height="18.2"/><rect class="cls-1" x="139.58" y="210.08" width="23.99" height="19.88"/><polygon class="cls-1" points="153.46 215.68 139.58 215.68 139.58 205.22 149.53 205.22 153.46 215.68"/><rect class="cls-1" x="145.17" y="196.53" width="1.35" height="23.31"/><path class="cls-1" d="M147.05,195.32a1.21,1.21,0,1,1-1.21-1.21A1.21,1.21,0,0,1,147.05,195.32Z"/><polygon class="cls-1" points="735.49 370.53 664.4 370.53 655.53 171.36 735.49 187.96 735.49 370.53"/><polygon class="cls-1" points="425.34 256.79 425.34 190.2 414.19 190.2 414.19 172.36 410.21 172.36 410.21 146.21 388.26 146.21 388.26 126.98 386.31 126.98 386.31 146.21 382.01 146.21 382.01 122.14 380.06 122.14 380.06 146.21 366.19 146.21 366.19 190.2 359.02 190.2 359.02 256.79 352.88 256.79 352.88 378.07 429.66 378.07 429.66 256.79 425.34 256.79"/><rect class="cls-1" x="41.99" y="378.06" width="849.37" height="20.2"/><polygon class="cls-6" points="541.96 393.31 504.35 393.31 519 318 541.96 318 541.96 393.31"/><rect class="cls-6" x="11.52" y="396.25" width="891.8" height="31.85"/><polygon class="cls-6" points="580.54 292.28 522.09 292.28 522.09 293.34 524.73 293.34 524.73 392.18 577.9 392.18 577.9 293.34 580.54 293.34 580.54 292.28"/><rect class="cls-6" x="262.17" y="316.9" width="51.83" height="82.34"/><rect class="cls-6" x="165.23" y="359.08" width="89.13" height="40.15"/><rect class="cls-6" x="213" y="269.38" width="19.57" height="98.6"/><rect class="cls-6" x="217.32" y="243.08" width="1.02" height="53.62"/><rect class="cls-6" x="220.63" y="247.14" width="1.02" height="53.62"/><rect class="cls-6" x="214.51" y="263.28" width="11.96" height="13.21"/><rect class="cls-6" x="250.87" y="331.64" width="34.05" height="67.6"/><rect class="cls-6" x="322.39" y="260.1" width="63.92" height="139.13"/><rect class="cls-6" x="328.67" y="255.32" width="51.36" height="23.17"/><rect class="cls-6" x="317.44" y="263.02" width="73.83" height="1.63"/><rect class="cls-6" x="310.81" y="328.97" width="30.12" height="70.26"/><rect class="cls-6" x="95.09" y="326.3" width="34.56" height="72.93"/><rect class="cls-6" x="106.27" y="306.48" width="68.87" height="92.75"/><rect class="cls-6" x="102.25" y="302.92" width="74.66" height="3.56"/><rect class="cls-6" x="109.32" y="293.27" width="30.26" height="18.81"/><rect class="cls-6" x="149.47" y="293.27" width="5.08" height="11.44"/><rect class="cls-6" x="159.64" y="293.27" width="5.59" height="11.44"/><rect class="cls-6" x="76.28" y="371.03" width="36.09" height="28.21"/><rect class="cls-6" x="62.65" y="359.08" width="17.09" height="40.15"/><rect class="cls-6" x="41.99" y="385.13" width="29.2" height="14.1"/><rect class="cls-6" x="380.03" y="367.98" width="359.85" height="31.26"/><rect class="cls-6" x="721.59" y="317.82" width="55.57" height="81.42"/><rect class="cls-6" x="769.02" y="349.47" width="55.57" height="49.3"/><rect class="cls-6" x="553.53" y="342.23" width="31.17" height="41.38"/><rect class="cls-6" x="749.37" y="240.39" width="39.3" height="158.85"/><polygon class="cls-6" points="853.39 399.24 801.55 399.24 801.55 306.48 840.86 306.48 853.39 399.24"/><rect class="cls-6" x="830.69" y="378.06" width="45.4" height="21.17"/><rect class="cls-6" x="778.51" y="207.2" width="1.36" height="43.17"/><rect class="cls-6" x="783.08" y="216.47" width="1.36" height="43.17"/><rect class="cls-6" x="774.36" y="222.43" width="1.36" height="43.17"/><rect class="cls-6" x="803.58" y="298.98" width="18.55" height="14.61"/><rect class="cls-6" x="805.62" y="293.77" width="14.49" height="8.21"/><rect class="cls-6" x="829.5" y="303.26" width="3.56" height="5.9"/><rect class="cls-6" x="834.32" y="297.88" width="5.08" height="11.28"/><rect class="cls-7" x="553.37" y="276.22" width="47.12" height="151.88"/><rect class="cls-7" x="549.85" y="277.12" width="54.16" height="1.54"/><rect class="cls-7" x="551.31" y="298.45" width="51.23" height="1.53"/><rect class="cls-7" x="551.31" y="319.12" width="51.23" height="1.53"/><rect class="cls-7" x="551.31" y="339.78" width="51.23" height="1.53"/><rect class="cls-7" x="551.31" y="360.44" width="51.23" height="1.53"/><rect class="cls-7" x="551.31" y="381.1" width="51.23" height="1.53"/><rect class="cls-7" x="551.31" y="401.76" width="51.23" height="1.53"/><rect class="cls-7" x="548.06" y="272.92" width="57.74" height="4.2"/><rect class="cls-8" x="557.61" y="283.65" width="4.9" height="12.13"/><rect class="cls-7" x="568.56" y="283.65" width="4.9" height="12.13"/><rect class="cls-7" x="579.51" y="283.65" width="4.9" height="12.13"/><rect class="cls-7" x="590.46" y="283.65" width="4.9" height="12.13"/><rect class="cls-7" x="557.61" y="303.49" width="4.9" height="12.13"/><rect class="cls-8" x="568.56" y="303.49" width="4.9" height="12.13"/><rect class="cls-7" x="579.51" y="303.49" width="4.9" height="12.13"/><rect class="cls-7" x="590.46" y="303.49" width="4.9" height="12.13"/><rect class="cls-7" x="557.61" y="324.15" width="4.9" height="12.13"/><rect class="cls-7" x="568.56" y="324.15" width="4.9" height="12.13"/><rect class="cls-7" x="579.51" y="324.15" width="4.9" height="12.13"/><rect class="cls-8" x="590.46" y="324.15" width="4.9" height="12.13"/><rect class="cls-7" x="557.61" y="344.81" width="4.9" height="12.13"/><rect class="cls-8" x="568.56" y="344.81" width="4.9" height="12.13"/><rect class="cls-8" x="579.51" y="344.81" width="4.9" height="12.13"/><rect class="cls-7" x="590.46" y="344.81" width="4.9" height="12.13"/><rect class="cls-8" x="557.61" y="365.47" width="4.9" height="12.13"/><rect class="cls-7" x="568.56" y="365.47" width="4.9" height="12.13"/><rect class="cls-7" x="579.51" y="365.47" width="4.9" height="12.13"/><rect class="cls-7" x="590.46" y="365.47" width="4.9" height="12.13"/><rect class="cls-7" x="557.61" y="386.13" width="4.9" height="12.13"/><rect class="cls-7" x="568.56" y="386.13" width="4.9" height="12.13"/><rect class="cls-8" x="579.51" y="386.13" width="4.9" height="12.13"/><rect class="cls-7" x="590.46" y="386.13" width="4.9" height="12.13"/><rect class="cls-7" x="557.61" y="406.79" width="4.9" height="12.13"/><rect class="cls-8" x="568.56" y="406.79" width="4.9" height="12.13"/><rect class="cls-7" x="579.51" y="406.79" width="4.9" height="12.13"/><rect class="cls-8" x="590.46" y="406.79" width="4.9" height="12.13"/><rect class="cls-7" x="556.34" y="267.13" width="16.03" height="7.89"/><rect class="cls-7" x="555.26" y="266.91" width="18.2" height="1.35"/><polygon class="cls-7" points="485.83 428.1 423.07 428.1 423.07 283.79 485.83 268.44 485.83 428.1"/><rect class="cls-7" x="420.31" y="281.25" width="5.51" height="146.85"/><rect class="cls-7" x="436" y="277.12" width="5.51" height="150.98"/><rect class="cls-7" x="451.69" y="272.82" width="5.51" height="155.28"/><rect class="cls-7" x="467.39" y="269.32" width="5.51" height="158.78"/><rect class="cls-7" x="483.08" y="265.59" width="5.51" height="162.51"/><rect class="cls-8" x="427.25" y="293.58" width="7.32" height="11.15"/><rect class="cls-8" x="442.95" y="293.58" width="7.32" height="11.15"/><rect class="cls-7" x="458.64" y="293.58" width="7.32" height="11.15"/><rect class="cls-8" x="474.33" y="293.58" width="7.32" height="11.15"/><rect class="cls-7" x="427.25" y="313" width="7.32" height="11.15"/><rect class="cls-7" x="442.95" y="313" width="7.32" height="11.15"/><rect class="cls-8" x="458.64" y="313" width="7.32" height="11.15"/><rect class="cls-8" x="474.33" y="313" width="7.32" height="11.15"/><rect class="cls-8" x="427.25" y="332.41" width="7.32" height="11.15"/><rect class="cls-8" x="442.95" y="332.41" width="7.32" height="11.15"/><rect class="cls-8" x="458.64" y="332.41" width="7.32" height="11.15"/><rect class="cls-7" x="474.33" y="332.41" width="7.32" height="11.15"/><rect class="cls-8" x="427.25" y="351.83" width="7.32" height="11.15"/><rect class="cls-7" x="442.95" y="351.83" width="7.32" height="11.15"/><rect class="cls-8" x="458.64" y="351.83" width="7.32" height="11.15"/><rect class="cls-8" x="474.33" y="351.83" width="7.32" height="11.15"/><rect class="cls-8" x="427.25" y="371.25" width="7.32" height="11.15"/><rect class="cls-8" x="442.95" y="371.25" width="7.32" height="11.15"/><rect class="cls-7" x="458.64" y="371.25" width="7.32" height="11.15"/><rect class="cls-8" x="474.33" y="371.25" width="7.32" height="11.15"/><rect class="cls-7" x="427.25" y="390.67" width="7.32" height="11.15"/><rect class="cls-7" x="442.95" y="390.67" width="7.32" height="11.15"/><rect class="cls-8" x="458.64" y="390.67" width="7.32" height="11.15"/><rect class="cls-8" x="474.33" y="390.67" width="7.32" height="11.15"/><rect class="cls-8" x="427.25" y="410.09" width="7.32" height="11.15"/><rect class="cls-7" x="442.95" y="410.09" width="7.32" height="11.15"/><rect class="cls-8" x="458.64" y="410.09" width="7.32" height="11.15"/><rect class="cls-7" x="474.33" y="410.09" width="7.32" height="11.15"/><polygon class="cls-7" points="244.02 290.71 244.02 292.2 242.52 292.2 242.52 296.48 268.79 296.48 268.79 428.1 225.69 428.1 225.69 303.34 225.69 296.48 225.69 292.2 224.13 292.2 224.13 290.71 244.02 290.71"/><rect class="cls-7" x="317.44" y="350.49" width="36.92" height="77.61"/><rect class="cls-7" x="156.54" y="332.7" width="30.01" height="95.4"/><rect class="cls-7" x="180.6" y="352.58" width="32.7" height="75.52"/><rect class="cls-7" x="167.34" y="328.88" width="13.27" height="11.42"/><rect class="cls-7" x="182.85" y="351.34" width="34.86" height="2.79"/><rect class="cls-7" x="209.79" y="384.97" width="36.66" height="43.13"/><rect class="cls-7" x="91.3" y="349.89" width="29.82" height="78.21"/><rect class="cls-7" x="65.42" y="388.87" width="39.23" height="39.23"/><rect class="cls-7" x="22.22" y="382.45" width="24.54" height="45.65"/><rect class="cls-7" x="41.99" y="413.8" width="58" height="14.3"/><rect class="cls-7" y="409.18" width="29.73" height="18.92"/><rect class="cls-7" x="121.12" y="399.24" width="46.21" height="28.86"/><rect class="cls-7" x="256.69" y="415.66" width="71.99" height="12.43"/><rect class="cls-7" x="384.32" y="415.66" width="71.99" height="12.43"/><polygon class="cls-7" points="325.87 379.16 298.51 379.16 286.94 421.88 325.87 421.88 325.87 379.16"/><rect class="cls-7" x="338.52" y="317" width="0.76" height="47.39"/><rect class="cls-7" x="342.33" y="333.03" width="1.02" height="27.97"/><rect class="cls-7" x="336.88" y="337.99" width="13.84" height="13.84"/><rect class="cls-7" x="334.54" y="336.91" width="18.33" height="1.24"/><rect class="cls-7" x="347.64" y="388.07" width="44.73" height="40.03"/><rect class="cls-7" x="383.81" y="344.01" width="28.74" height="77.23"/><rect class="cls-7" x="496.05" y="358.53" width="45.91" height="69.57"/><rect class="cls-7" x="481.65" y="402.46" width="52.35" height="25.64"/><rect class="cls-7" x="539.42" y="418.92" width="34.04" height="9.18"/><rect class="cls-7" x="591.85" y="402.46" width="55.34" height="25.64"/><rect class="cls-7" x="613.9" y="335.34" width="68.87" height="92.75" transform="translate(1296.66 763.44) rotate(180)"/><rect class="cls-7" x="612.12" y="331.79" width="74.66" height="3.56" transform="translate(1298.9 667.13) rotate(180)"/><rect class="cls-7" x="649.45" y="322.13" width="30.26" height="18.81" transform="translate(1329.16 663.07) rotate(180)"/><rect class="cls-7" x="634.48" y="322.13" width="5.08" height="11.44" transform="translate(1274.04 655.7) rotate(180)"/><rect class="cls-7" x="623.81" y="322.13" width="5.59" height="11.44" transform="translate(1253.2 655.7) rotate(180)"/><rect class="cls-7" x="730.1" y="292.64" width="54.51" height="135.46" transform="translate(1514.72 720.74) rotate(180)"/><rect class="cls-7" x="728.56" y="290.31" width="57.61" height="3.83" transform="translate(1514.72 584.44) rotate(180)"/><rect class="cls-7" x="731.94" y="285.41" width="50.85" height="18.2" transform="translate(1514.72 589.01) rotate(180)"/><rect class="cls-7" x="758.76" y="277.96" width="20.14" height="19.88" transform="translate(1537.65 575.8) rotate(180)"/><polygon class="cls-7" points="767.24 283.56 778.89 283.56 778.89 273.1 770.53 273.1 767.24 283.56"/><rect class="cls-7" x="773.07" y="264.41" width="1.13" height="23.31" transform="translate(1547.26 552.13) rotate(180)"/><path class="cls-7" d="M772.62,263.2a1,1,0,1,0,1-1.21A1.12,1.12,0,0,0,772.62,263.2Z"/><rect class="cls-7" x="777.15" y="372.18" width="24.4" height="55.92"/><rect class="cls-7" x="707.66" y="344.91" width="27.82" height="83.19"/><polygon class="cls-7" points="721.59 428.1 682.39 428.1 682.39 383.61 715.47 398.26 721.59 428.1"/><rect class="cls-7" x="793.54" y="403.94" width="59.85" height="24.16"/><rect class="cls-7" x="831.28" y="331.64" width="34.77" height="96.46"/><rect class="cls-7" x="857.92" y="410.09" width="57.6" height="18.01"/><rect class="cls-7" x="829.5" y="329.87" width="38.14" height="3.16"/><rect class="cls-7" x="860.63" y="316.26" width="0.76" height="19.44"/><rect class="cls-7" x="855.55" y="318.72" width="0.76" height="15.59"/><polygon class="cls-7" points="878.92 367.98 863.42 367.98 863.42 412.17 885.53 412.17 878.92 367.98"/></g></g></svg>