<svg xmlns="http://www.w3.org/2000/svg" viewBox="0 0 848 561.35"><defs><style>.cls-1{isolation:isolate;}.cls-2{fill:#f6f5f5;opacity:0.3;}.cls-2,.cls-3{mix-blend-mode:soft-light;}.cls-3{fill:#e2ecf8;}.cls-4{fill:#3c3c3b;}.cls-5{fill:#333332;}.cls-6{fill:#575756;}.cls-7{fill:#474646;}.cls-8{fill:#868686;}.cls-9{fill:#333;}.cls-10{fill:#121212;}.cls-11{fill:#d9d9d9;}.cls-12{fill:#1d1d1b;}.cls-13{fill:#fff;}.cls-14,.cls-20{fill:#121c2e;}.cls-15{fill:#fcfcfc;}.cls-16{font-size:110.45px;font-family:Orchide;}.cls-16,.cls-18{fill:#ed7203;}.cls-17{letter-spacing:-0.01em;}.cls-19{fill:none;stroke-width:2px;}.cls-19,.cls-20{stroke:#121c2e;stroke-miterlimit:10;}</style></defs><title>flying_logo</title><g class="cls-1"><g id="Layer_2" data-name="Layer 2"><g id="Layer_1-2" data-name="Layer 1"><path class="cls-2" d="M443.48,23.53h1.9c-.9-3.5-4.18-11.45-15.5-11.56a22,22,0,0,0-4.47.4,22.7,22.7,0,0,1,2.64-.12C439.08,12.35,442.48,19.91,443.48,23.53Z"/><path class="cls-3" d="M445.38,23.53c-.9-3.5-4.18-11.45-15.5-11.56a21.16,21.16,0,0,0-5.16.55,18.38,18.38,0,0,0-2.74.91,14.55,14.55,0,0,0-8.22,10.1Z"/><path class="cls-4" d="M398,56,387.35,86.8a5.94,5.94,0,0,1-5.61,4h0l13-37.57a19.5,19.5,0,0,1,6.35-8.93l5.14-4L410,42.58l-5.73,4.58A19.57,19.57,0,0,0,398,56Z"/><path class="cls-5" d="M354.26,7.08h8.37A2.34,2.34,0,0,1,365,9.42v6.95a0,0,0,0,1,0,0H351.92a0,0,0,0,1,0,0V9.42A2.34,2.34,0,0,1,354.26,7.08Z"/><path class="cls-6" d="M365,9.24a2.34,2.34,0,0,0-2.34-2.16h-8.37a2.34,2.34,0,0,0-2.33,2.16Z"/><rect class="cls-7" x="356.81" y="5.1" width="3.28" height="1.98"/><path class="cls-7" d="M355.67,1.23h5.55a0,0,0,0,1,0,0V4.28a.82.82,0,0,1-.82.82h-3.92a.82.82,0,0,1-.82-.82V1.23A0,0,0,0,1,355.67,1.23Z"/><path class="cls-8" d="M356.23,0h4.44a.55.55,0,0,1,.55.55v.67a0,0,0,0,1,0,0h-5.55a0,0,0,0,1,0,0V.55A.55.55,0,0,1,356.23,0Z"/><path class="cls-8" d="M361.22,1.16V2.48s5.2.89,6.91,1.29a26.69,26.69,0,0,0,6.58.85L408.92,3V2.26Z"/><path class="cls-8" d="M355.67,2.62V1.23l-9-1.2L311.85.91V2l26.83,3.2A32.49,32.49,0,0,0,353.57,3.4Z"/><path class="cls-4" d="M454.88,47.16l-5.72-4.58,3.74-2.32,5.13,4a19.52,19.52,0,0,1,6.36,8.93l13,37.57h0a5.94,5.94,0,0,1-5.61-4L461.12,56A19.49,19.49,0,0,0,454.88,47.16Z"/><path class="cls-6" d="M507.77,16.37H478.56a18.72,18.72,0,0,0-5.75.9l-23.13,7.36a2,2,0,0,1-1.86-.34h0a3.49,3.49,0,0,0-2.17-.76H413.49a3.45,3.45,0,0,0-2.16.76h0a2,2,0,0,1-1.87.34l-23.13-7.36a18.72,18.72,0,0,0-5.75-.9H351.37a2.91,2.91,0,0,0-2.91,2.91v5.89a4.3,4.3,0,0,0,4.29,4.3h23.87a18.93,18.93,0,0,1,12.19,4.44l19,16A9.49,9.49,0,0,0,414,52.16h31.22a9.47,9.47,0,0,0,6.13-2.24l19-16a18.93,18.93,0,0,1,12.19-4.44h23.87a4.3,4.3,0,0,0,4.29-4.3V19.28A2.91,2.91,0,0,0,507.77,16.37Z"/><polygon class="cls-9" points="423.46 52.16 423.46 61.34 434.66 61.34 434.66 52.16 429.57 52.16 423.46 52.16"/><polygon class="cls-7" points="423.46 52.16 423.46 55.07 434.66 55.07 434.66 52.16 429.57 52.16 423.46 52.16"/><path class="cls-10" d="M478.41,20a12.74,12.74,0,0,0-5.33,1.17L451.61,31a14.78,14.78,0,0,1-6.21,1.36H413.74A14.82,14.82,0,0,1,407.53,31l-21.47-9.87A12.72,12.72,0,0,0,380.74,20H348.46v5.22a4.3,4.3,0,0,0,4.29,4.3h23.87a18.93,18.93,0,0,1,12.19,4.44l19,16A9.49,9.49,0,0,0,414,52.16h31.22a9.47,9.47,0,0,0,6.13-2.24l19-16a18.93,18.93,0,0,1,12.19-4.44h23.87a4.3,4.3,0,0,0,4.29-4.3V20Z"/><path class="cls-5" d="M494.16,7.08h13.06a0,0,0,0,1,0,0V14a2.34,2.34,0,0,1-2.34,2.34h-8.37A2.34,2.34,0,0,1,494.16,14V7.08A0,0,0,0,1,494.16,7.08Z" transform="translate(1001.39 23.45) rotate(180)"/><path class="cls-6" d="M494.17,9.24a2.34,2.34,0,0,1,2.34-2.16h8.37a2.35,2.35,0,0,1,2.34,2.16Z"/><polygon class="cls-5" points="461.28 38.17 456.08 41.79 453.09 40.34 459.26 36.57 461.28 38.17"/><path class="cls-7" d="M461.48,44.31l-6.41-5.13,4.19-2.61L465,41.1a21.81,21.81,0,0,1,7.12,10l14.58,42.09h0a6.64,6.64,0,0,1-6.28-4.47l-12-34.52A21.79,21.79,0,0,0,461.48,44.31Z"/><rect class="cls-7" x="499.05" y="5.1" width="3.28" height="1.98" transform="translate(1001.39 12.18) rotate(180)"/><path class="cls-7" d="M498.74,1.23h3.92a.82.82,0,0,1,.82.82V5.1a0,0,0,0,1,0,0h-5.55a0,0,0,0,1,0,0V2A.82.82,0,0,1,498.74,1.23Z" transform="translate(1001.39 6.33) rotate(180)"/><path class="cls-8" d="M497.92,0h5.55a0,0,0,0,1,0,0V.67a.55.55,0,0,1-.55.55h-4.44a.55.55,0,0,1-.55-.55V0A0,0,0,0,1,497.92,0Z" transform="translate(1001.39 1.23) rotate(180)"/><path class="cls-8" d="M497.92,1V2.36s-5.2,1-6.91,1.41a25.72,25.72,0,0,1-6.58.85L449.34,3V2.26Z"/><path class="cls-8" d="M503.47,2.62V1.23l9-1.2,36.61.88V2l-28.59,3.2A32.49,32.49,0,0,1,505.57,3.4Z"/><rect class="cls-6" x="419.31" y="61.34" width="27.91" height="21.35" rx="2.32"/><rect class="cls-6" x="401.54" y="63.25" width="15.86" height="17.89"/><rect class="cls-4" x="417.4" y="66.11" width="1.91" height="13.36"/><path class="cls-7" d="M401.1,63.25h.44a0,0,0,0,1,0,0V81.14a0,0,0,0,1,0,0h-.44a1.59,1.59,0,0,1-1.59-1.59V64.84A1.59,1.59,0,0,1,401.1,63.25Z"/><path class="cls-6" d="M397.9,70h1.61a0,0,0,0,1,0,0v4.42a0,0,0,0,1,0,0H397.9a2,2,0,0,1-2-2V72A2,2,0,0,1,397.9,70Z"/><rect class="cls-11" x="422.29" y="64.35" width="7.34" height="7.34" rx="1.36"/><path class="cls-4" d="M431.45,82.69h3.64a0,0,0,0,1,0,0V83a.81.81,0,0,1-.81.81h-2a.81.81,0,0,1-.81-.81v-.35A0,0,0,0,1,431.45,82.69Z"/><circle class="cls-8" cx="438.88" cy="70.6" r="6.25"/><circle class="cls-4" cx="438.88" cy="70.6" r="4.81"/><circle class="cls-12" cx="438.88" cy="70.6" r="2.65"/><path class="cls-13" d="M438.33,68.92a1.61,1.61,0,0,0-1.09.85.31.31,0,0,0,.24.45.47.47,0,0,0,.46-.19,1.54,1.54,0,0,1,.64-.52.36.36,0,0,0,.23-.38C438.8,69,438.62,68.86,438.33,68.92Z"/><polygon class="cls-5" points="397.86 38.17 403.06 41.79 406.05 40.34 399.88 36.57 397.86 38.17"/><path class="cls-7" d="M390.67,54.2,378.72,88.72a6.65,6.65,0,0,1-6.29,4.47h0L387,51.1a21.81,21.81,0,0,1,7.12-10l5.76-4.53,4.19,2.61-6.42,5.13A21.79,21.79,0,0,0,390.67,54.2Z"/><polygon class="cls-14" points="378.44 85.41 376.81 84.25 47.9 279.24 49.53 280.4 378.44 85.41"/><polygon class="cls-14" points="479 84.35 478 81.35 805.1 278.24 803.47 279.4 479 84.35"/><path class="cls-15" d="M805.23,266.35H42.77A42.77,42.77,0,0,0,0,309.12V518.59a42.76,42.76,0,0,0,42.77,42.76H805.23A42.76,42.76,0,0,0,848,518.59V309.12A42.77,42.77,0,0,0,805.23,266.35Zm-749.73,31a8,8,0,1,1,8-8A8,8,0,0,1,55.5,297.35Zm740,0a8,8,0,1,1,8-8A8,8,0,0,1,795.5,297.35Z"/><path id="text_A" class="cls-14" d="M190.23,335.18a40.83,40.83,0,0,1,16.36,3.28,42.23,42.23,0,0,1,22.25,22.25,40.77,40.77,0,0,1,3.27,16.35v42.08H190.23A40.85,40.85,0,0,1,174,415.86a42.34,42.34,0,0,1-22.53-22.53,42.31,42.31,0,0,1,0-32.62,41.43,41.43,0,0,1,9.07-13.28,43.1,43.1,0,0,1,13.46-9A41,41,0,0,1,190.23,335.18Zm25.24,67.32V377.06a24.62,24.62,0,0,0-2-9.81A25.44,25.44,0,0,0,200,353.79a24.59,24.59,0,0,0-9.81-2,25.29,25.29,0,0,0-9.91,2,25,25,0,0,0-8.13,5.42,25.48,25.48,0,0,0-5.43,8,24.62,24.62,0,0,0-2,9.81,25.46,25.46,0,0,0,7.39,18.05,25,25,0,0,0,8.13,5.42,25.29,25.29,0,0,0,9.91,2Z"/><path id="text_P_1" class="cls-14" d="M279,335.56a40.79,40.79,0,0,1,16.36,3.27,43.4,43.4,0,0,1,13.37,9,41.7,41.7,0,0,1,9.07,13.28,42.33,42.33,0,0,1,0,32.63,42.68,42.68,0,0,1-22.44,22.53A40.79,40.79,0,0,1,279,419.51H253.8v33.66H237.16V377.44a40.82,40.82,0,0,1,3.27-16.36,42,42,0,0,1,22.35-22.25A41,41,0,0,1,279,335.56ZM289,400.91a25.28,25.28,0,0,0,15.52-23.47,24.67,24.67,0,0,0-2-9.82,25.62,25.62,0,0,0-5.42-8,25.51,25.51,0,0,0-18-7.38,24.59,24.59,0,0,0-9.81,2,25.37,25.37,0,0,0-13.46,13.46,24.51,24.51,0,0,0-2,9.82v25.43H279A25.47,25.47,0,0,0,289,400.91Z"/><path id="text_P_2" class="cls-14" d="M368.6,335.56A40.79,40.79,0,0,1,385,338.83a43.4,43.4,0,0,1,13.37,9,41.7,41.7,0,0,1,9.07,13.28,42.33,42.33,0,0,1,0,32.63A42.68,42.68,0,0,1,385,416.24a40.79,40.79,0,0,1-16.36,3.27H343.36v33.66H326.72V377.44A40.82,40.82,0,0,1,330,361.08a42,42,0,0,1,22.35-22.25A41,41,0,0,1,368.6,335.56Zm9.91,65.35A25.28,25.28,0,0,0,394,377.44a24.67,24.67,0,0,0-2-9.82,25.62,25.62,0,0,0-5.42-8,25.51,25.51,0,0,0-18-7.38,24.59,24.59,0,0,0-9.81,2,25.37,25.37,0,0,0-13.46,13.46,24.51,24.51,0,0,0-2,9.82v25.43H368.6A25.47,25.47,0,0,0,378.51,400.91Z"/><path id="text_C" class="cls-14" d="M428.44,347.52a40.81,40.81,0,0,1,13.93-9.25,41.94,41.94,0,0,1,31.6,0,41,41,0,0,1,13.93,9.25l5.79,5.8L482.1,365.1l-6-5.8a25.06,25.06,0,0,0-8.42-5.61,25.24,25.24,0,0,0-19.07,0,24.92,24.92,0,0,0-8.41,5.61,22.87,22.87,0,0,0-5.61,8.23,25.24,25.24,0,0,0,0,19.07,25.65,25.65,0,0,0,23.55,15.9,26.11,26.11,0,0,0,9.73-1.87,23.11,23.11,0,0,0,8.23-5.62l6-5.79L493.69,401l-5.79,5.8A41.15,41.15,0,0,1,474,416.05a41.94,41.94,0,0,1-31.6,0,41,41,0,0,1-13.93-9.25A40.13,40.13,0,0,1,419.27,393a43.24,43.24,0,0,1,0-31.6A40.13,40.13,0,0,1,428.44,347.52Z"/><path id="text_L" class="cls-14" d="M517.06,301.52V419.14H500.42V301.52Z"/><path id="text_U" class="cls-14" d="M607.37,335.18v41.88a41,41,0,0,1-3.27,16.27,42.58,42.58,0,0,1-22.44,22.53,42.19,42.19,0,0,1-32.62,0,41,41,0,0,1-13.37-9.06,43,43,0,0,1-9-13.47,41,41,0,0,1-3.27-16.27V335.18h16.64v41.88a25.28,25.28,0,0,0,15.43,23.47,24.59,24.59,0,0,0,9.81,2,25.29,25.29,0,0,0,25.43-25.44V335.18Z"/><path id="text_S" class="cls-14" d="M687.77,335.18v16.64H637.1a8.3,8.3,0,0,0-8.41,8.42c0,3.7,2,6.56,5.95,8.6h36.12a24.59,24.59,0,0,1,9.81,2,26.18,26.18,0,0,1,8,5.33,24.22,24.22,0,0,1,5.43,7.95,25.56,25.56,0,0,1,0,19.63,25.44,25.44,0,0,1-13.47,13.46,24.59,24.59,0,0,1-9.81,2H620.27V402.5h50.49a8.33,8.33,0,0,0,8.6-8.61,8.14,8.14,0,0,0-2.43-6,8.36,8.36,0,0,0-6.17-2.43H637.1a24.67,24.67,0,0,1-9.82-2,24.28,24.28,0,0,1-7.94-5.43,26,26,0,0,1-5.33-8,25.56,25.56,0,0,1,0-19.63,24.75,24.75,0,0,1,13.27-13.28,24.85,24.85,0,0,1,9.82-2Z"/><path id="text_T" class="cls-14" d="M751.53,402.5v16.64H743.3A40.84,40.84,0,0,1,727,415.86a42.25,42.25,0,0,1-22.53-22.53,40.85,40.85,0,0,1-3.28-16.27V301.52h16.64V352h33.66v16.64H717.87v8.41A25.31,25.31,0,0,0,743.3,402.5Z"/><path id="text_R" class="cls-14" d="M808,335.18v16.64h-8.41a24.64,24.64,0,0,0-9.82,2,25.37,25.37,0,0,0-13.46,13.46,24.63,24.63,0,0,0-2,9.81v42.08H757.52V377.06a40.77,40.77,0,0,1,3.27-16.35,41.43,41.43,0,0,1,9.07-13.28,43.1,43.1,0,0,1,13.46-9,41,41,0,0,1,16.27-3.28Z"/><text id="caption" class="cls-16" transform="translate(353.59 505.74)">innovation at wo<tspan class="cls-17" x="396.72" y="0">r</tspan><tspan x="419.31" y="0">k</tspan></text><path id="logo" class="cls-14" d="M128.94,406.17a51.43,51.43,0,0,1-12.28,17.09l-38.8,36.21-36-38.63a51.78,51.78,0,0,1-11-17.82,53.51,53.51,0,0,1,1.39-40.17,53.37,53.37,0,0,1,30.09-28.08,52.36,52.36,0,0,1,20-3.06,54.37,54.37,0,0,1,19.87,4.69,51.93,51.93,0,0,1,17,12.19L105,364.15c-.35-.42-.71-.84-1.09-1.24a31.88,31.88,0,0,0-34.43-8.37,31.32,31.32,0,0,0-10.74,6.64,32,32,0,0,0-7.45,10.34,31.46,31.46,0,0,0-.83,24.17,31.93,31.93,0,0,0,6.71,10.83h0a31.84,31.84,0,0,0,45,1.56l.17-.16a31.37,31.37,0,0,0,7.37-10.26Z"/><path id="polygon" class="cls-18" d="M96.23,374.22,83,366.57a3.85,3.85,0,0,0-3.83,0l-13.23,7.65A3.8,3.8,0,0,0,64,377.53v15.28a3.82,3.82,0,0,0,1.91,3.32l13.23,7.64a3.85,3.85,0,0,0,3.83,0l13.24-7.64a3.85,3.85,0,0,0,1.91-3.32V377.53A3.82,3.82,0,0,0,96.23,374.22Z"/><polygon class="cls-14" points="746.21 244.53 748.12 243.96 791.83 282.95 789.91 283.52 746.21 244.53"/><line class="cls-19" x1="747.17" y1="249.18" x2="752.83" y2="243.53"/><polygon class="cls-14" points="103.79 244.53 101.88 243.96 59 282.35 61.09 283.52 103.79 244.53"/><line class="cls-19" x1="95.31" y1="257.62" x2="90.69" y2="250.09"/><line class="cls-20" x1="484.05" y1="82.51" x2="477.95" y2="84.2"/><line class="cls-20" x1="380.22" y1="86.51" x2="374.01" y2="85.33"/></g></g></g></svg>