<svg xmlns="http://www.w3.org/2000/svg" viewBox="0 0 28.27 63.05"><defs><style>.cls-1{fill:#b3c2ce;}.cls-2{fill:#e4ebf3;}.cls-3{fill:#fdfadb;}.cls-4{fill:#fff;}</style></defs><title>lamp</title><g id="Layer_2" data-name="Layer 2"><g id="Layer_1-2" data-name="Layer 1"><path class="cls-1" d="M18.82,63.05a4.12,4.12,0,0,0,.09-.86,4.67,4.67,0,0,0-4.77-4.57,4.67,4.67,0,0,0-4.78,4.57,4.12,4.12,0,0,0,.09.86Z"/><path class="cls-1" d="M11.2,54.18c0-4.83,1.32-11.32,2.94-11.32s2.92,6.49,2.92,11.32-1.31,6.16-2.92,6.16S11.2,59,11.2,54.18Z"/><path class="cls-1" d="M18.26,55.46c0,.47-1.85.86-4.12.86S10,55.93,10,55.46s1.85-.88,4.13-.88S18.26,55,18.26,55.46Z"/><path class="cls-1" d="M17.44,46.94c0,.38-1.48.69-3.3.69s-3.32-.31-3.32-.69,1.49-.7,3.32-.7S17.44,46.55,17.44,46.94Z"/><polygon class="cls-1" points="13.05 46.56 13.59 14.43 14.14 11.96 14.69 14.43 15.22 46.56 13.05 46.56"/><path class="cls-1" d="M16.45,41.57a2.32,2.32,0,1,1-2.31-2.31A2.31,2.31,0,0,1,16.45,41.57Z"/><path class="cls-2" d="M14.09,57.62a4.68,4.68,0,0,0-4.73,4.57,4.12,4.12,0,0,0,.09.86h4.64Z"/><path class="cls-2" d="M14.09,42.87c-1.6.14-2.89,6.53-2.89,11.31s1.29,6.13,2.89,6.16Z"/><path class="cls-2" d="M14.09,54.58c-2.26,0-4.08.4-4.08.88s1.82.85,4.08.86Z"/><path class="cls-2" d="M14.09,46.24c-1.81,0-3.27.32-3.27.7s1.46.69,3.27.69Z"/><polygon class="cls-2" points="14.09 12.19 13.59 14.43 13.05 46.56 14.09 46.56 14.09 12.19"/><path class="cls-2" d="M14.09,39.26a2.31,2.31,0,0,0,0,4.62Z"/><path class="cls-2" d="M14.12,18.38c-5.43,0-10-3.08-10.7-7.17l.37-.05C4.42,15.06,8.86,18,14.12,18s9.7-3,10.34-6.86l.35.05C24.15,15.3,19.56,18.38,14.12,18.38Z"/><path class="cls-2" d="M17.07,18a2,2,0,1,1,2-2A2,2,0,0,1,17.07,18Zm0-3.71a1.67,1.67,0,1,0,1.67,1.67A1.67,1.67,0,0,0,17.07,14.27Z"/><path class="cls-2" d="M20,16.86a1.22,1.22,0,1,1,1.22-1.22A1.22,1.22,0,0,1,20,16.86Zm0-2.07a.85.85,0,0,0-.85.85.86.86,0,1,0,.85-.85Z"/><path class="cls-2" d="M11.2,18a2,2,0,1,1,2-2A2,2,0,0,1,11.2,18Zm0-3.71a1.67,1.67,0,1,0,1.67,1.67A1.67,1.67,0,0,0,11.2,14.27Z"/><path class="cls-2" d="M8.31,16.86a1.22,1.22,0,1,1,1.22-1.22A1.22,1.22,0,0,1,8.31,16.86Zm0-2.07a.86.86,0,1,0,.85.85A.85.85,0,0,0,8.31,14.79Z"/><path class="cls-2" d="M27.73,3.16V2.82A1.84,1.84,0,0,0,25.9,1H23.42a1.84,1.84,0,0,0-1.83,1.84v.34Z"/><path class="cls-2" d="M25.2.57a.56.56,0,0,1-.57.57.57.57,0,0,1-.57-.57A.58.58,0,0,1,24.63,0,.57.57,0,0,1,25.2.57Z"/><path class="cls-2" d="M26.12,11.64a.64.64,0,0,1-.64.64H23.82a.64.64,0,0,1-.64-.64h0a.64.64,0,0,1,.64-.64h1.66a.64.64,0,0,1,.64.64Z"/><path class="cls-1" d="M23.19,11.55s0,.06,0,.09a.64.64,0,0,0,.64.64h1.66a.64.64,0,0,0,.64-.64.25.25,0,0,0,0-.09Z"/><polygon class="cls-3" points="26.63 11 22.68 11 21.58 3.65 27.73 3.65 26.63 11"/><path class="cls-1" d="M28.27,3.29a.62.62,0,0,1-.62.62h-6A.62.62,0,0,1,21,3.29h0a.62.62,0,0,1,.62-.62h6a.62.62,0,0,1,.62.62Z"/><path class="cls-4" d="M24.68,7.93a.8.8,0,0,1-.65.91h0a.81.81,0,0,1-.91-.66l-.43-2.71a.78.78,0,0,1,.65-.9h0a.79.79,0,0,1,.9.65Z"/><path class="cls-2" d="M6.73,3.16V2.82A1.84,1.84,0,0,0,4.9,1H2.43A1.84,1.84,0,0,0,.59,2.82v.34Z"/><path class="cls-2" d="M4.21.57a.57.57,0,0,1-.58.57A.56.56,0,0,1,3.07.57.57.57,0,0,1,3.63,0,.58.58,0,0,1,4.21.57Z"/><path class="cls-2" d="M5.12,11.64a.64.64,0,0,1-.64.64H2.83a.64.64,0,0,1-.64-.64h0A.64.64,0,0,1,2.83,11H4.48a.64.64,0,0,1,.64.64Z"/><path class="cls-1" d="M2.2,11.55s0,.06,0,.09a.64.64,0,0,0,.64.64H4.48a.64.64,0,0,0,.64-.64v-.09Z"/><polygon class="cls-3" points="5.63 11 1.69 11 0.58 3.65 6.73 3.65 5.63 11"/><path class="cls-1" d="M7.27,3.29a.62.62,0,0,1-.62.62h-6A.62.62,0,0,1,0,3.29H0a.62.62,0,0,1,.62-.62h6a.62.62,0,0,1,.62.62Z"/><path class="cls-4" d="M3.68,7.93A.79.79,0,0,1,3,8.84H3a.8.8,0,0,1-.9-.66L1.7,5.47a.78.78,0,0,1,.64-.9h0a.78.78,0,0,1,.9.65Z"/></g></g></svg>