<svg xmlns="http://www.w3.org/2000/svg" viewBox="0 0 70.63 118.5"><defs><style>.cls-1{fill:#c6c2af;}.cls-2{fill:#88c881;}.cls-3{fill:#6aa562;}.cls-4{fill:#695020;}</style></defs><title>tree</title><g id="Layer_2" data-name="Layer 2"><g id="Layer_1-2" data-name="Layer 1"><path class="cls-1" d="M54.94,110.71c0,4.3-8.79,7.79-19.62,7.79S15.7,115,15.7,110.71s8.78-7.79,19.62-7.79S54.94,106.41,54.94,110.71Z"/><path class="cls-2" d="M69.87,27.83C66.84,17,56.83,12,47.73,12,44.08,2.58,32-2.52,22.11,1.25,10.7,5.63,7.61,18.37,10.51,27.33h0a18.76,18.76,0,0,0-8.73,8.07c-5.13,9,1.49,20.88,11.44,23.07,9.1,2,16.56-4,19.38-10.86a24.14,24.14,0,0,0,17.61,7.76C63.76,55.79,73.49,40.73,69.87,27.83Z"/><path class="cls-3" d="M46.54,44.23c-8.49.82-13.41-3.61-13.41-3.61s-5.81,6.29-17.42,7.16C5,48.59.65,41.77.07,40.75c-.78,7.79,5.09,16,13.15,17.73,9.1,2,16.56-4,19.38-10.86a24.14,24.14,0,0,0,17.61,7.76c13.55.41,23.28-14.65,19.66-27.55C66.84,17,56.83,12,47.73,12,64.11,23.8,55,43.42,46.54,44.23Z"/><path class="cls-4" d="M29.44,112.58s1.64-57.5,1.17-59.48-6.32-11.05-6.32-11.05,7.49,8.21,8.2,4.81,2.1-29.17,2.1-29.17.47,26.06,2.35,25.78S46.54,33,46.54,33s-8.9,13.6-8.9,18.7.7,60.9.7,60.9Z"/></g></g></svg>